<svg width="56" height="48" viewBox="0 0 56 48" fill="none" xmlns="http://www.w3.org/2000/svg">
<path d="M0.823529 5.91183C0.823529 4.34394 1.55018 2.84026 2.84363 1.73159C4.13708 0.622915 5.89138 6.87244e-05 7.72059 6.88615e-05L49.1029 7.19624e-05C50.9322 7.20995e-05 52.6865 0.622919 53.9799 1.73159C55.2734 2.84026 56 4.34394 56 5.91184L56 41.3824C56 42.9503 55.2733 44.454 53.9799 45.5627C52.6864 46.6713 50.9322 47.2942 49.1029 47.2942L7.72058 47.2942C5.89137 47.2942 4.13708 46.6713 2.84363 45.5627C1.55018 44.454 0.823525 42.9503 0.823525 41.3824L0.823529 5.91183ZM16.3419 25.1251L36.3192 25.1251L28.9152 31.4684C28.5915 31.7459 28.4096 32.1223 28.4096 32.5148C28.4096 32.9072 28.5915 33.2836 28.9152 33.5612C29.239 33.8387 29.6781 33.9946 30.136 33.9946C30.5939 33.9946 31.033 33.8387 31.3568 33.5612L41.7024 24.6935C41.863 24.5562 41.9904 24.3931 42.0773 24.2136C42.1642 24.034 42.209 23.8415 42.209 23.6471C42.209 23.4527 42.1642 23.2602 42.0773 23.0807C41.9904 22.9011 41.863 22.738 41.7024 22.6007L31.3568 13.7331C31.033 13.4556 30.5939 13.2997 30.136 13.2997C29.6781 13.2997 29.239 13.4556 28.9153 13.7331C28.5915 14.0106 28.4096 14.387 28.4096 14.7795C28.4096 15.172 28.5915 15.5483 28.9153 15.8259L36.3192 22.1692L16.3419 22.1692C15.8846 22.1692 15.446 22.3249 15.1227 22.6021C14.7993 22.8792 14.6176 23.2552 14.6176 23.6471C14.6176 24.0391 14.7993 24.415 15.1227 24.6922C15.446 24.9694 15.8846 25.1251 16.3419 25.1251Z" fill="#E24329"/>
</svg>
