<svg width="20" height="20" viewBox="0 0 20 20" fill="none" xmlns="http://www.w3.org/2000/svg">
<path d="M20 10C20 15.523 15.523 20 10 20C4.477 20 -1.95696e-07 15.523 -4.37114e-07 10C-6.78532e-07 4.477 4.477 -1.95696e-07 10 -4.37114e-07C15.52 0.00599984 19.994 4.48 20 10ZM2 10C2 11.5823 2.46919 13.129 3.34824 14.4446C4.22729 15.7602 5.47672 16.7855 6.93853 17.391C8.40034 17.9965 10.0089 18.155 11.5607 17.8463C13.1126 17.5376 14.538 16.7757 15.6569 15.6569C16.7757 14.538 17.5376 13.1126 17.8463 11.5607C18.155 10.0089 17.9965 8.40034 17.391 6.93853C16.7855 5.47672 15.7602 4.22729 14.4446 3.34824C13.129 2.46919 11.5822 2 10 2C7.879 2.00238 5.84555 2.846 4.34578 4.34578C2.846 5.84555 2.00238 7.879 2 10ZM15 10L10 15L8.59 13.59L11.17 11L5 11L5 9L11.17 9L8.59 6.41L10 5L15 10Z" fill="#E24329"/>
</svg>
