<svg width="56" height="48" viewBox="0 0 56 48" fill="none" xmlns="http://www.w3.org/2000/svg">
<path d="M55.1765 41.3823C55.1765 42.9502 54.4498 44.4539 53.1564 45.5626C51.8629 46.6713 50.1086 47.2941 48.2794 47.2941L6.89706 47.2941C5.06785 47.2941 3.31355 46.6713 2.0201 45.5626C0.726652 44.4539 0 42.9502 0 41.3823L0 5.91176C0 4.34387 0.726652 2.84019 2.0201 1.73152C3.31355 0.622845 5.06785 0 6.89706 0L48.2794 0C50.1086 0 51.8629 0.622845 53.1564 1.73152C54.4498 2.84019 55.1765 4.34387 55.1765 5.91176L55.1765 41.3823ZM39.6581 22.1691H19.6808L27.0848 15.8258C27.4085 15.5483 27.5904 15.1719 27.5904 14.7794C27.5904 14.3869 27.4085 14.0105 27.0848 13.733C26.761 13.4555 26.3219 13.2996 25.864 13.2996C25.4061 13.2996 24.967 13.4555 24.6432 13.733L14.2976 22.6007C14.137 22.738 14.0096 22.9011 13.9227 23.0806C13.8358 23.2602 13.791 23.4527 13.791 23.6471C13.791 23.8415 13.8358 24.0339 13.9227 24.2135C14.0096 24.3931 14.137 24.5562 14.2976 24.6934L24.6432 33.5611C24.967 33.8386 25.4061 33.9945 25.864 33.9945C26.3219 33.9945 26.761 33.8386 27.0848 33.5611C27.4085 33.2836 27.5904 32.9072 27.5904 32.5147C27.5904 32.1222 27.4085 31.7458 27.0848 31.4683L19.6808 25.125H39.6581C40.1154 25.125 40.554 24.9693 40.8773 24.6921C41.2007 24.415 41.3824 24.039 41.3824 23.6471C41.3824 23.2551 41.2007 22.8792 40.8773 22.602C40.554 22.3248 40.1154 22.1691 39.6581 22.1691Z" fill="#828282"/>
</svg>
