<svg width="60" height="60" viewBox="0 0 60 60" fill="none" xmlns="http://www.w3.org/2000/svg">
<circle cx="30" cy="30" r="30" fill="#E24329"/>
<path d="M47.919 18.5097C47.8737 18.4128 47.809 18.3255 47.7286 18.2528C47.6481 18.1801 47.5536 18.1235 47.4504 18.0861L44.7685 17.1097C43.8857 16.3633 41.1913 14.128 40.0324 13.5592C38.8447 13.0625 37.6065 12.6865 36.338 12.4375C36.2792 12.3252 36.1931 12.2283 36.087 12.1551C35.9981 12.0925 35.8972 12.0475 35.7903 12.0226C35.6833 11.9976 35.5723 11.9933 35.4636 12.0098L15.6403 15.0762C15.5303 15.091 15.4244 15.1267 15.3289 15.1814C15.2333 15.236 15.15 15.3084 15.0838 15.3944C15.0176 15.4804 14.9699 15.5783 14.9433 15.6823C14.9167 15.7863 14.9118 15.8943 14.929 16.0001L16.6026 25.9739C16.6346 26.1649 16.7368 26.3384 16.8904 26.4628C17.0439 26.5872 17.2388 26.6542 17.4393 26.6518C17.4853 26.6557 17.5315 26.6557 17.5774 26.6518L29.899 24.6949C30.0075 24.6777 30.1114 24.64 30.2049 24.5841C30.2983 24.5281 30.3793 24.455 30.4435 24.3688C30.5076 24.2826 30.5534 24.1851 30.5785 24.0819C30.6035 23.9786 30.6072 23.8716 30.5893 23.7669C30.5715 23.6623 30.5324 23.5621 30.4744 23.472C30.4164 23.3819 30.3405 23.3037 30.2512 23.2419C30.1618 23.1801 30.0607 23.1358 29.9536 23.1117C29.8465 23.0876 29.7355 23.084 29.627 23.1012L18.1171 24.9168L16.7239 16.5247L34.8946 13.7004L35.8485 19.5668L34.041 19.6193C33.9628 19.6229 33.8855 19.6365 33.8109 19.6596L31.2336 20.4666C31.0631 20.5201 30.915 20.6251 30.811 20.7661C30.7071 20.907 30.6528 21.0764 30.6563 21.2493C30.6429 21.9025 30.7075 22.555 30.8487 23.194C31.0895 23.6581 31.3888 24.0918 31.7399 24.4851C31.8389 24.6016 31.9698 24.689 32.1177 24.7375C32.2655 24.786 32.4245 24.7936 32.5767 24.7595L35.8861 24.005L38.0325 24.2027L40.911 25.8166C40.9934 25.8983 41.0934 25.9616 41.2039 26.0022L41.3294 26.0466C41.4074 26.0884 41.4923 26.1171 41.5804 26.1313L43.9276 26.9907C44.0213 27.0243 44.1204 27.0421 44.2205 27.0431C44.3992 27.0531 44.5765 27.0075 44.7263 26.9131C44.8762 26.8187 44.9907 26.6804 45.0531 26.5186L47.9525 19.127C47.9893 19.0271 48.0052 18.9211 47.9995 18.8152C47.9937 18.7092 47.9664 18.6055 47.919 18.5097ZM38.3881 22.609L35.9238 22.3871C35.8351 22.3732 35.7447 22.3732 35.656 22.3871L32.7273 23.0528C32.6224 22.9243 32.526 22.7895 32.4386 22.6493C32.393 22.3689 32.3665 22.0858 32.3591 21.802L34.2251 21.217L36.861 21.1363H36.9656H36.9949L37.0785 21.1161C37.1048 21.1099 37.1301 21.1004 37.1539 21.0879L37.2292 21.0556L37.3003 21.0153L37.3631 20.9669L37.4216 20.9184L37.476 20.8579L37.5262 20.7974L37.5639 20.7288L37.6015 20.6643L37.6266 20.5876L37.6517 20.5109C37.654 20.4854 37.654 20.4598 37.6517 20.4343C37.6538 20.4074 37.6538 20.3805 37.6517 20.3536V20.3173C37.6541 20.2999 37.6541 20.2822 37.6517 20.2648V20.2164L36.6476 14.1644C37.5432 14.3609 38.4174 14.6392 39.2584 14.9955C40.0951 15.399 42.2122 17.1178 43.4046 18.1103L41.0951 24.0292L38.727 22.7139C38.6225 22.6574 38.5072 22.6217 38.3881 22.609ZM43.7686 25.1912L42.5971 24.7635L44.9066 18.885L46.0781 19.3126L43.7686 25.1912Z" fill="white"/>
<path d="M28.7057 16.8515C28.2795 16.5292 27.7796 16.3099 27.2477 16.2118C26.7158 16.1137 26.1672 16.1397 25.6478 16.2875C25.1284 16.4353 24.6531 16.7008 24.2617 17.0617C23.8702 17.4226 23.5739 17.8686 23.3975 18.3623C23.2211 18.8561 23.1696 19.3834 23.2474 19.9002C23.3252 20.4171 23.53 20.9085 23.8447 21.3335C24.1594 21.7585 24.5749 22.1049 25.0566 22.3436C25.5383 22.5823 26.0722 22.7065 26.6138 22.7058C26.7536 22.706 26.8933 22.6979 27.0321 22.6816C27.6979 22.6014 28.3242 22.3329 28.8319 21.9099C29.3396 21.4869 29.7061 20.9284 29.8851 20.3048C30.0641 19.6812 30.0476 19.0204 29.8377 18.4059C29.6278 17.7913 29.2339 17.2505 28.7057 16.8515ZM27.9652 20.4545C27.79 20.6678 27.563 20.8363 27.3044 20.9451C27.0457 21.0538 26.7633 21.0995 26.4819 21.0782C26.2006 21.0568 25.9291 20.969 25.6913 20.8225C25.4535 20.676 25.2567 20.4753 25.1184 20.2381C24.98 20.0009 24.9043 19.7346 24.8979 19.4625C24.8915 19.1905 24.9547 18.9211 25.0818 18.6781C25.2089 18.4352 25.396 18.2261 25.6267 18.0694C25.8574 17.9127 26.1245 17.8131 26.4046 17.7795H26.6138C26.9364 17.7805 27.2523 17.8689 27.5255 18.0345C27.7987 18.2001 28.0181 18.4364 28.1589 18.7164C28.2997 18.9964 28.3562 19.3088 28.322 19.6182C28.2877 19.9277 28.1641 20.2216 27.9652 20.4666V20.4545Z" fill="white"/>
<path d="M38.3962 39.8977C38.1362 39.5785 37.7609 39.3655 37.3453 39.3012C36.9297 39.2369 36.5042 39.326 36.1536 39.5507L34.5052 40.3577L30.5681 41.2332C30.5187 40.94 30.4271 40.6548 30.2962 40.3859C29.9441 39.9299 29.5288 39.5226 29.0619 39.1755C28.9603 39.0929 28.8398 39.0348 28.7103 39.006C28.5808 38.9772 28.446 38.9786 28.3172 39.0101L24.2002 40.0309L21.3636 39.9945L17.1797 38.4372V37.7755C17.1797 37.5614 17.0915 37.3562 16.9346 37.2049C16.7777 37.0535 16.5648 36.9685 16.3429 36.9685H12.8368C12.6149 36.9685 12.402 37.0535 12.2451 37.2049C12.0882 37.3562 12 37.5614 12 37.7755V47.1884C12 47.4024 12.0882 47.6077 12.2451 47.759C12.402 47.9103 12.6149 47.9954 12.8368 47.9954H16.322C16.5439 47.9954 16.7567 47.9103 16.9137 47.759C17.0706 47.6077 17.1587 47.4024 17.1587 47.1884V46.4259L25.2211 47.9954C25.2767 48.0015 25.3329 48.0015 25.3885 47.9954C25.4735 47.9952 25.5581 47.9829 25.6395 47.9591L32.2626 45.9417L32.3296 45.9175L36.5134 44.235C36.5961 44.2033 36.6725 44.1583 36.7394 44.1019L38.4841 42.6575C38.8366 42.3689 39.0583 41.959 39.1021 41.5152C39.1458 41.0713 39.0082 40.6284 38.7184 40.281L38.3962 39.8977ZM15.4852 46.3815H13.6736V38.5824H15.4852V46.3815ZM37.3962 41.4349L35.7478 42.7946L31.7229 44.4085L25.3383 46.3573L17.1587 44.7676V40.164L20.9243 41.556C21.0165 41.5897 21.1143 41.6075 21.2129 41.6084L24.309 41.6488C24.3826 41.6493 24.4558 41.6398 24.5266 41.6205L28.3172 40.6804C28.5057 40.8371 28.6819 41.007 28.8444 41.1888C28.9112 41.4367 28.9602 41.6888 28.9908 41.9433L26.5892 42.7139L24.2212 43.0407C23.9992 43.0557 23.7926 43.1551 23.6466 43.317C23.5007 43.479 23.4274 43.6902 23.443 43.9042C23.4585 44.1182 23.5616 44.3175 23.7295 44.4582C23.8974 44.599 24.1164 44.6696 24.3383 44.6546H24.4596L26.8989 44.3157C26.9489 44.3112 26.9982 44.3003 27.0453 44.2834L30.1832 43.2748C30.3742 43.2144 30.5352 43.0879 30.6351 42.9197L34.9863 41.9433C35.054 41.9265 35.1198 41.9035 35.183 41.8747L36.9695 40.9831C37.003 40.9831 37.0574 40.9467 37.0908 40.9225L37.4088 41.326C37.4173 41.3435 37.4207 41.363 37.4185 41.3822C37.4162 41.4014 37.4086 41.4197 37.3962 41.4349Z" fill="white"/>
<path d="M32.9198 40.3294C33.1418 40.3294 33.3546 40.2444 33.5115 40.0931C33.6684 39.9417 33.7566 39.7365 33.7566 39.5225V28.6288C33.7566 28.4148 33.6684 28.2095 33.5115 28.0582C33.3546 27.9069 33.1418 27.8218 32.9198 27.8218H19.5314C19.3094 27.8218 19.0966 27.9069 18.9397 28.0582C18.7827 28.2095 18.6946 28.4148 18.6946 28.6288V37.8763C18.6946 38.0903 18.7827 38.2956 18.9397 38.4469C19.0966 38.5982 19.3094 38.6833 19.5314 38.6833C19.7533 38.6833 19.9661 38.5982 20.1231 38.4469C20.28 38.2956 20.3681 38.0903 20.3681 37.8763V29.4357H23.7529L23.8282 34.346C23.8291 34.4868 23.8682 34.6249 23.9416 34.7467C24.015 34.8684 24.1201 34.9695 24.2466 35.0399C24.3745 35.1082 24.5188 35.143 24.665 35.1408C24.8131 35.1403 24.958 35.0998 25.0834 35.0238L26.2925 34.3177L27.5184 34.9915C27.6468 35.063 27.7926 35.1004 27.9408 35.0997C28.0891 35.099 28.2345 35.0604 28.3622 34.9878C28.4899 34.9151 28.5952 34.811 28.6675 34.6862C28.7398 34.5614 28.7764 34.4203 28.7736 34.2774L28.7025 29.4357H32.083V39.5225C32.083 39.7365 32.1712 39.9417 32.3281 40.0931C32.4851 40.2444 32.6979 40.3294 32.9198 40.3294ZM26.7026 32.6635C26.5754 32.5927 26.4311 32.5554 26.2842 32.5554C26.1373 32.5554 25.993 32.5927 25.8658 32.6635L25.4892 32.8814L25.439 29.5285L27.0456 29.5043L27.0958 32.8571L26.7026 32.6635Z" fill="white"/>
</svg>
