<svg width="60" height="60" viewBox="0 0 60 60" fill="none" xmlns="http://www.w3.org/2000/svg">
<circle cx="30" cy="30" r="30" fill="#2D9CDB"/>
<path d="M47.9823 20.8723C47.9818 20.7396 47.9438 20.6097 47.8727 20.4977C47.8016 20.3857 47.7002 20.2961 47.5803 20.2392L30.3002 12.0672C30.2063 12.0229 30.1039 12 30.0002 12C29.8964 12 29.794 12.0229 29.7002 12.0672L12.42 20.2392C12.3001 20.2961 12.1988 20.3857 12.1276 20.4977C12.0565 20.6097 12.0185 20.7396 12.018 20.8723L12 26.3038C11.9998 26.3963 12.0179 26.488 12.0531 26.5735C12.0884 26.659 12.1402 26.7367 12.2055 26.8022C12.2709 26.8677 12.3485 26.9197 12.4339 26.9551C12.5194 26.9906 12.611 27.0088 12.7035 27.0088H13.3035V47.2965C13.3035 47.4818 13.3766 47.6596 13.5069 47.7913C13.6372 47.923 13.8142 47.998 13.9995 48H46.0008C46.0932 48 46.1847 47.9818 46.27 47.9464C46.3554 47.9111 46.4329 47.8593 46.4983 47.7939C46.5636 47.7286 46.6154 47.6511 46.6508 47.5657C46.6861 47.4804 46.7043 47.3889 46.7043 47.2965V27.0088H47.2968C47.3893 27.0088 47.4809 26.9906 47.5664 26.9551C47.6518 26.9197 47.7295 26.8677 47.7948 26.8022C47.8602 26.7367 47.9119 26.659 47.9472 26.5735C47.9825 26.488 48.0005 26.3963 48.0003 26.3038L47.9823 20.8723ZM25.5181 32.4404V31.6574H26.2576V32.2574L25.5181 32.4404ZM24.3796 33.9074C24.5036 34.0039 24.656 34.0566 24.8131 34.0574C24.8714 34.0578 24.9294 34.0502 24.9856 34.0349L27.1381 33.4904C27.2908 33.4516 27.4261 33.3629 27.5225 33.2384C27.619 33.114 27.6711 32.9608 27.6706 32.8034V31.6499H29.2982V38.3999H22.4686V31.6499H24.1051V33.3554C24.106 33.4622 24.1311 33.5674 24.1787 33.663C24.2262 33.7587 24.295 33.8422 24.3796 33.9074ZM33.7427 32.4404V31.6574H34.4807V32.2574L33.7427 32.4404ZM32.6027 33.9074C32.7264 34.0034 32.8781 34.0561 33.0347 34.0574C33.0939 34.0576 33.1529 34.05 33.2102 34.0349L35.3597 33.4904C35.5129 33.452 35.6489 33.3635 35.7462 33.2391C35.8435 33.1147 35.8965 32.9613 35.8967 32.8034V31.6499H37.5227V38.3999H30.7022V31.6499H32.3282V33.3554C32.329 33.4622 32.3542 33.5674 32.4018 33.663C32.4493 33.7587 32.518 33.8422 32.6027 33.9074ZM29.6297 39.8054H30.3707V40.4054L29.6297 40.5929V39.8054ZM37.8542 39.8054H38.5937V40.4054L37.8542 40.5929V39.8054ZM21.4066 39.8054H22.1461V40.4054L21.4066 40.5929V39.8054ZM28.2181 39.8054V41.4959C28.2171 41.604 28.2412 41.7108 28.2886 41.8079C28.336 41.905 28.4053 41.9898 28.4912 42.0554C28.6153 42.1517 28.7676 42.2044 28.9247 42.2054C28.9829 42.2058 29.041 42.1983 29.0972 42.1829L31.2497 41.6384C31.4023 41.6 31.5378 41.5117 31.6345 41.3875C31.7313 41.2633 31.7838 41.1104 31.7837 40.9529V39.8069H33.4097V46.557H26.5906V39.8069L28.2181 39.8054ZM41.6343 46.5555H34.8137V39.8054H36.4397V41.4959C36.4405 41.6835 36.5154 41.8631 36.648 41.9957C36.7806 42.1283 36.9602 42.2032 37.1477 42.2039C37.2064 42.2038 37.2649 42.1962 37.3217 42.1814L39.4713 41.6369C39.6243 41.5988 39.7603 41.5107 39.8576 41.3865C39.9549 41.2623 40.0079 41.1092 40.0083 40.9514V39.7904H41.6343V46.5555ZM20.2666 42.0554C20.3905 42.152 20.543 42.2047 20.7001 42.2054C20.7588 42.2058 20.8174 42.1983 20.8741 42.1829L23.0251 41.6384C23.1778 41.6 23.3132 41.5117 23.41 41.3875C23.5067 41.2633 23.5592 41.1104 23.5591 40.9529V39.8069H25.1866V46.557H18.3556V39.7904H19.9936V41.4959C19.9929 41.6039 20.0171 41.7106 20.0645 41.8077C20.1119 41.9047 20.181 41.9895 20.2666 42.0554ZM43.0383 46.593V39.0929C43.0379 38.9069 42.9638 38.7285 42.8322 38.597C42.7007 38.4654 42.5223 38.3913 42.3363 38.3909H38.9268V30.9403C38.9264 30.754 38.8521 30.5755 38.7202 30.4439C38.5883 30.3123 38.4096 30.2383 38.2232 30.2383H21.7666C21.675 30.2389 21.5844 30.2576 21.5 30.2931C21.4156 30.3287 21.339 30.3806 21.2747 30.4458C21.2103 30.511 21.1595 30.5882 21.125 30.6731C21.0904 30.7579 21.073 30.8487 21.0736 30.9403V38.3864H17.6551C17.5635 38.387 17.4729 38.4056 17.3885 38.4412C17.3041 38.4768 17.2275 38.5287 17.1632 38.5939C17.0988 38.6591 17.0479 38.7363 17.0134 38.8212C16.9789 38.906 16.9615 38.9968 16.962 39.0884V46.5885H14.7V27.0388H45.3003V46.593H43.0383ZM46.0008 25.6018C45.9626 25.6059 45.9249 25.6139 45.8883 25.6258C45.8691 25.6204 45.8496 25.6164 45.8298 25.6138H14.1705C14.1508 25.6164 14.1312 25.6204 14.112 25.6258C14.0755 25.6139 14.0378 25.6059 13.9995 25.6018H13.4085L13.422 21.3208L30.0002 13.4802L46.5783 21.3208L46.5918 25.6018H46.0008Z" fill="white"/>
<path d="M29.9996 16.0062C29.2283 16.0062 28.4743 16.2349 27.8329 16.6635C27.1915 17.092 26.6917 17.7011 26.3965 18.4138C26.1013 19.1264 26.0241 19.9106 26.1745 20.6671C26.325 21.4236 26.6965 22.1186 27.2419 22.664C27.7873 23.2094 28.4823 23.5809 29.2388 23.7313C29.9953 23.8818 30.7795 23.8046 31.4921 23.5094C32.2048 23.2142 32.8139 22.7143 33.2424 22.073C33.6709 21.4316 33.8997 20.6776 33.8997 19.9062C33.8997 18.8719 33.4888 17.8799 32.7574 17.1485C32.026 16.4171 31.034 16.0062 29.9996 16.0062ZM29.9996 22.3783C29.5104 22.3783 29.0322 22.2332 28.6254 21.9614C28.2187 21.6896 27.9016 21.3033 27.7144 20.8513C27.5272 20.3993 27.4782 19.902 27.5737 19.4222C27.6691 18.9424 27.9047 18.5016 28.2506 18.1557C28.5965 17.8098 29.0373 17.5742 29.5171 17.4788C29.9969 17.3833 30.4942 17.4323 30.9462 17.6195C31.3982 17.8067 31.7845 18.1238 32.0563 18.5305C32.3281 18.9373 32.4732 19.4155 32.4732 19.9047C32.4724 20.5605 32.2115 21.1892 31.7478 21.6529C31.2841 22.1166 30.6554 22.3775 29.9996 22.3783Z" fill="white"/>
</svg>
