<svg width="60" height="60" viewBox="0 0 60 60" fill="none" xmlns="http://www.w3.org/2000/svg">
<path d="M60 30C60 46.5685 46.5685 60 30 60C13.4315 60 0 46.5685 0 30C0 13.4315 13.4315 0 30 0C46.5685 0 60 13.4315 60 30Z" fill="#FF6A00"/>
<path fill-rule="evenodd" clip-rule="evenodd" d="M51.2008 37.4856C51.318 37.0485 51.7141 36.7447 52.1666 36.7447H53.4103C53.1309 36.156 52.595 35.6577 51.8952 35.2381C50.9864 34.693 49.9655 34.3834 49.3951 34.2359C49.3738 34.2304 49.3527 34.2242 49.3318 34.2173C48.8407 34.055 48.3039 33.6964 48.0501 33.1049L46.0126 28.859C45.8219 28.4616 45.914 27.9861 46.2393 27.6885C46.5646 27.391 47.0464 27.3416 47.4253 27.5669C47.4928 27.607 47.5655 27.6346 47.7546 27.6346H48.0677V25.6783H47.7546C47.564 25.6783 47.3702 25.7665 47.2504 25.905C47.0008 26.1936 46.6088 26.315 46.2399 26.2181C45.8709 26.1211 45.5892 25.8227 45.5138 25.4487C45.4864 25.313 45.4439 25.1723 45.3831 24.9705C45.3766 24.9491 45.3699 24.927 45.3631 24.9042C45.3453 24.9067 45.3265 24.9096 45.3065 24.9129C45.1623 24.9364 44.9932 24.9742 44.7911 25.0242L44.7704 25.0291C44.6905 25.0471 44.6104 25.0652 44.5301 25.0834C43.851 25.2369 43.1575 25.3937 42.445 25.5138C42.531 25.622 42.5957 25.7495 42.6314 25.8913C42.6871 26.1121 42.7565 26.4341 42.7658 26.7864C42.8353 27.2535 42.9313 27.4592 42.9916 27.545C43.0236 27.5904 43.0555 27.6273 43.1979 27.6598C43.5575 27.7421 43.8426 28.0156 43.9397 28.3716C44.305 29.7114 44.6998 31.5898 45.043 33.2232C45.2 33.9702 45.3462 34.6659 45.4739 35.2354C45.4771 35.2498 45.48 35.2643 45.4826 35.2789C45.6942 36.4672 45.3433 37.7232 44.4945 38.6345L44.4932 38.6359L42.4972 40.7703C42.4886 40.7795 42.4798 40.7886 42.4708 40.7975C41.9275 41.336 41.2061 41.6599 40.4012 41.6599H34.466C33.2645 41.6599 32.2268 40.7106 32.3114 39.4137L32.4159 35.5831C32.4306 35.0416 32.8738 34.6103 33.4155 34.6103H33.9364L34.1804 33.6431H18.3804L20.4572 34.9772C20.708 35.1383 20.8739 35.4028 20.9096 35.6987C20.9453 35.9946 20.8471 36.291 20.6419 36.5072C19.4044 37.8104 19.014 39.6749 18.9009 40.8572H19.6541C20.2064 40.8572 20.6541 41.3049 20.6541 41.8572C20.6541 42.0256 20.634 42.1843 20.6219 42.2798L20.62 42.2947C20.6055 42.4097 20.6016 42.4512 20.6016 42.4819C20.6016 44.9865 22.6605 47 25.1692 47C27.5428 47 29.485 45.2019 29.7432 42.9411C29.7749 42.6634 29.9214 42.4117 30.1471 42.2469C30.3727 42.0821 30.6571 42.0193 30.9312 42.0736C31.0858 42.1043 31.2049 42.1066 31.4721 42.1066H42.0295C42.3196 42.1066 42.6418 41.9608 42.9133 41.6581C43.1899 41.3496 43.6282 41.2437 44.0152 41.3918C44.4022 41.5399 44.6577 41.9114 44.6577 42.3257V42.4296C44.6577 45.1158 46.9793 47.2539 49.7478 46.9538C51.7185 46.7415 53.4117 45.1524 53.7554 43.1941C53.7568 43.1857 53.7584 43.1774 53.7601 43.1691C54.1409 41.2818 53.2169 39.507 51.6661 38.6104C51.2744 38.3839 51.0835 37.9226 51.2008 37.4856ZM17.8683 41.2846C17.9135 40.2999 18.1528 38.276 19.2874 36.6028C19.4724 36.3301 19.6812 36.0667 19.9168 35.8186L17.0805 33.9966C16.5027 33.5801 16.7653 32.6431 17.5007 32.6431H34.3609C34.8616 32.6431 35.2045 33.0339 35.2187 33.477C35.2201 33.52 35.2184 33.5636 35.2134 33.6073C35.2105 33.6329 35.2065 33.6585 35.2013 33.6842L34.8862 34.9336C34.7811 35.35 34.4135 35.6103 34.0458 35.6103H33.4155L33.3104 39.4626C33.2579 40.1393 33.7832 40.6599 34.466 40.6599H40.4012C40.9265 40.6599 41.3992 40.4517 41.7668 40.0873L43.7628 37.9529C44.393 37.2762 44.6557 36.3391 44.4981 35.4542C44.364 34.8561 44.2139 34.1414 44.0545 33.3828C43.7145 31.7643 43.3325 29.9461 42.9749 28.6346C42.2921 28.4785 41.9244 28.0099 41.7668 26.8647C41.7668 26.6044 41.7143 26.3441 41.6618 26.1359L40.1911 26.3441C39.9285 26.6044 39.6133 26.7085 39.2457 26.7085C39.1406 26.7085 38.9831 26.7085 38.878 26.6565L35.4114 25.8235C35.2167 25.7914 35.022 25.6996 34.8521 25.5728C34.7469 25.4943 34.6513 25.4024 34.571 25.303C34.571 25.303 34.3084 24.9906 33.9407 24.5742L33.6256 27.9579H38.1952C38.6679 27.9579 39.1406 28.1141 39.4558 28.4785C39.7709 28.8429 39.9285 29.3114 39.9285 29.7799L39.5608 38.005C39.512 38.8753 38.829 39.5659 37.9744 39.6599C37.9089 39.6671 37.8423 39.6708 37.775 39.6708H37.7225C37.6813 39.6685 37.6404 39.6649 37.5999 39.6599C36.71 39.5503 35.9915 38.7948 36.0417 37.8488L36.3043 31.3937H28.9509C28.4782 31.3937 27.953 31.1854 27.6378 30.821C27.3227 30.4566 27.1651 29.9881 27.2176 29.4676L28.058 21.8672C28.2156 20.774 28.7934 19.8369 29.7388 19.3164C30.595 18.7978 31.6235 19.0477 32.4732 19.2541C32.5617 19.2756 32.6484 19.2967 32.7327 19.3164C33.616 19.5468 34.1702 20.1442 34.3951 20.3867C34.4242 20.4182 34.4479 20.4437 34.466 20.4616C35.2751 21.3479 35.8425 22.0289 36.3082 22.5879C36.4169 22.7183 36.5201 22.8422 36.6195 22.9604L39.5608 23.6892C40.0861 23.7933 40.5063 24.2098 40.6638 24.7303L41.1365 24.6783C42.2159 24.581 43.2493 24.3475 44.3226 24.105C44.3984 24.0879 44.4744 24.0708 44.5506 24.0536C45.3235 23.8621 45.963 23.7587 46.1834 24.1886C46.2027 24.2262 46.2187 24.2678 46.2314 24.3139C46.2627 24.4226 46.2941 24.5267 46.324 24.6262C46.3945 24.8601 46.4572 25.0683 46.494 25.2509C46.7281 24.9802 47.0492 24.7957 47.3927 24.7187C47.5115 24.692 47.6331 24.6783 47.7546 24.6783H48.8051C48.9627 24.6783 49.0677 24.7824 49.0677 24.9386V28.3744C49.0677 28.5305 48.9627 28.6346 48.8051 28.6346H47.7546C47.4395 28.6346 47.1768 28.5826 46.9142 28.4264L48.9627 32.6951C49.0677 32.9554 49.3303 33.1636 49.6455 33.2677C50.8535 33.5801 54.1626 34.6212 54.5827 37.1721C54.6353 37.4844 54.4252 37.7447 54.11 37.7447H52.1666C52.1842 37.7548 52.2017 37.7651 52.2192 37.7754C52.6669 38.0411 53.0724 38.3684 53.4234 38.7447C54.5303 39.9312 55.0959 41.6049 54.7403 43.3669C54.3201 45.7615 52.2717 47.6877 49.8556 47.9479C46.8874 48.2697 44.3288 46.2781 43.7705 43.5498C43.6966 43.1882 43.6577 42.8137 43.6577 42.4299V42.3257C43.6258 42.3614 43.5929 42.3961 43.5592 42.4299C43.3082 42.681 43.0093 42.8784 42.6816 42.9936C42.4741 43.0665 42.2552 43.1066 42.0295 43.1066H31.4721C31.3604 43.1066 31.2582 43.1066 31.1574 43.1026C31.0213 43.0972 30.8877 43.0845 30.7368 43.0545C30.7023 43.3564 30.6433 43.6515 30.5617 43.9375C29.8981 46.2659 27.7419 48 25.1692 48C22.248 48 19.8097 45.7502 19.6143 42.8572C19.6059 42.7333 19.6016 42.6081 19.6016 42.4819C19.6016 42.3778 19.6148 42.2737 19.6279 42.1696C19.641 42.0655 19.6541 41.9613 19.6541 41.8572H18.4461C18.1309 41.8572 17.8683 41.5969 17.8683 41.2846ZM33.742 21.1517C33.7135 21.1229 33.6834 21.0912 33.6512 21.0573C33.4129 20.8065 33.0647 20.44 32.4915 20.2869C32.3925 20.2638 32.2974 20.2408 32.2052 20.2185C31.8322 20.1282 31.5065 20.0494 31.1679 20.0197C30.7675 19.9845 30.4813 20.0357 30.2569 20.1717C30.2451 20.1788 30.2332 20.1857 30.2211 20.1923C29.5932 20.5381 29.1725 21.1727 29.05 21.9946L28.2122 29.5719C28.1885 29.8158 28.2589 30.0104 28.3942 30.1669C28.4941 30.2824 28.7275 30.3937 28.9509 30.3937H36.3043C36.5766 30.3937 36.8371 30.5047 37.0257 30.7011C37.2142 30.8975 37.3146 31.1623 37.3035 31.4343L37.0404 37.9018C37.0201 38.2826 37.3199 38.6357 37.7552 38.6708H37.775C38.203 38.6708 38.5378 38.3442 38.5621 37.9535L38.9283 29.7611C38.9242 29.5191 38.8406 29.2959 38.6994 29.1326C38.6251 29.0467 38.4657 28.9579 38.1952 28.9579H33.6256C33.3442 28.9579 33.0759 28.8394 32.8864 28.6314C32.6969 28.4235 32.6038 28.1453 32.6299 27.8652L32.945 24.4814C32.982 24.0843 33.2515 23.7471 33.6307 23.6234C34.01 23.4998 34.4264 23.6133 34.6904 23.9123C34.878 24.1249 35.0388 24.3108 35.1528 24.4437C35.2099 24.5103 35.2554 24.5637 35.2868 24.6007L35.323 24.6435L35.3361 24.659C35.3361 24.659 35.3364 24.6594 34.9032 25.0237L35.3361 24.659L35.3492 24.6749C35.385 24.7192 35.4335 24.7629 35.4853 24.7955C35.5101 24.8111 35.5317 24.8218 35.5486 24.8286C35.5656 24.8354 35.5744 24.8369 35.5744 24.8369C35.5981 24.8408 35.6217 24.8456 35.645 24.8512L39.1116 25.6841C39.14 25.6909 39.1681 25.699 39.1957 25.7083C39.2091 25.7085 39.2242 25.7085 39.2457 25.7085C39.3352 25.7085 39.3842 25.6959 39.4094 25.6866C39.4307 25.6786 39.4546 25.6661 39.4872 25.6339C39.6052 25.5169 39.7499 25.4317 39.9078 25.3851C39.8181 25.2815 39.7485 25.1582 39.7067 25.02C39.6437 24.8118 39.4888 24.6944 39.3664 24.6701C39.351 24.667 39.3356 24.6636 39.3203 24.6598L36.379 23.931C36.1738 23.8802 35.9901 23.7657 35.8541 23.6039C35.7516 23.4821 35.6464 23.3558 35.5363 23.2237C35.0742 22.6691 34.5267 22.012 33.742 21.1517ZM45.594 24.89C45.5939 24.8901 45.5928 24.8899 45.5907 24.8896ZM21.1532 41.6126C21.2652 41.1685 21.6647 40.8572 22.1228 40.8572H24.0137C24.3609 40.8572 24.6832 41.0373 24.8652 41.333C25.0473 41.6287 25.0629 41.9976 24.9065 42.3076C24.8682 42.3834 24.8622 42.4059 24.8611 42.4098C24.8607 42.4116 24.8597 42.4152 24.8588 42.4234C24.8577 42.4324 24.8561 42.4505 24.8561 42.4819C24.8561 42.6772 25.0048 42.8354 25.2217 42.8354C25.4406 42.8354 25.5873 42.6752 25.5873 42.4819C25.5873 42.4481 25.5801 42.3931 25.537 42.3076C25.3806 41.9976 25.3962 41.6287 25.5782 41.333C25.7602 41.0373 26.0826 40.8572 26.4298 40.8572H28.3206C28.8729 40.8572 29.3206 41.3049 29.3206 41.8572V42.003C29.3214 42.0082 29.3243 42.0295 29.3331 42.0818C29.3337 42.0859 29.3345 42.0903 29.3353 42.0951C29.3465 42.1606 29.3696 42.2962 29.3728 42.4471C29.5 44.8232 27.5833 46.6574 25.2742 46.6574C22.9446 46.6574 21.0703 44.8125 21.0703 42.4819C21.0703 42.4728 21.0703 42.4634 21.0702 42.4536C21.07 42.2605 21.0696 41.9438 21.1532 41.6126ZM28.3732 42.4819C28.3732 42.4038 28.36 42.3257 28.3469 42.2477C28.3338 42.1696 28.3206 42.0915 28.3206 42.0134V41.8572H26.4298C26.5348 42.0655 26.5873 42.2737 26.5873 42.4819C26.5873 42.6113 26.5691 42.7373 26.5348 42.8572C26.3756 43.4128 25.8697 43.8354 25.2217 43.8354C24.6103 43.8354 24.0715 43.4395 23.9073 42.8572C23.874 42.7392 23.8561 42.6135 23.8561 42.4819C23.8561 42.2216 23.9086 42.0655 24.0137 41.8572H22.1228C22.0703 42.0655 22.0703 42.2737 22.0703 42.4819C22.0703 44.2519 23.4884 45.6574 25.2742 45.6574C27.0601 45.6574 28.4782 44.2519 28.3732 42.4819ZM49.3303 46.6574C47.0007 46.6574 45.1263 44.8125 45.1263 42.4819C45.1263 40.1513 47.0007 38.3064 49.3303 38.3064C51.66 38.3064 53.5343 40.1513 53.5343 42.4819C53.5343 44.8231 51.5967 46.6574 49.3303 46.6574ZM46.1263 42.4819C46.1263 44.2519 47.5445 45.6574 49.3303 45.6574C51.0636 45.6574 52.5343 44.2519 52.5343 42.4819C52.5343 40.712 51.1161 39.3064 49.3303 39.3064C47.5445 39.3064 46.1263 40.712 46.1263 42.4819Z" fill="white"/>
<path fill-rule="evenodd" clip-rule="evenodd" d="M49.3307 42.1284C49.1118 42.1284 48.9651 42.2886 48.9651 42.4819C48.9651 42.6772 49.1138 42.8354 49.3307 42.8354C49.5496 42.8354 49.6963 42.6752 49.6963 42.4819C49.6963 42.2866 49.5476 42.1284 49.3307 42.1284ZM47.9651 42.4819C47.9651 41.7531 48.5429 41.1284 49.3307 41.1284C50.0661 41.1284 50.6963 41.701 50.6963 42.4819C50.6963 43.2107 50.1186 43.8354 49.3307 43.8354C48.5954 43.8354 47.9651 43.2628 47.9651 42.4819Z" fill="white"/>
<path fill-rule="evenodd" clip-rule="evenodd" d="M17.6582 30.4457H24.3813C24.4169 30.4457 24.457 30.4312 24.4915 30.3971C24.5259 30.363 24.5368 30.3273 24.5368 30.3005V24.0015C24.5368 23.9747 24.5259 23.939 24.4915 23.9049C24.457 23.8707 24.4169 23.8562 24.3813 23.8562H17.6582C17.6227 23.8562 17.5825 23.8707 17.548 23.9049C17.5136 23.939 17.5027 23.9747 17.5027 24.0015V30.3005C17.5027 30.3273 17.5136 30.363 17.548 30.3971C17.5825 30.4312 17.6227 30.4457 17.6582 30.4457ZM24.3813 31.4457H17.6582C17.0279 31.4457 16.5027 30.9251 16.5027 30.3005V24.0015C16.5027 23.3768 17.0279 22.8562 17.6582 22.8562H24.3813C25.0116 22.8562 25.5368 23.3768 25.5368 24.0015V30.3005C25.5368 30.9251 25.0116 31.4457 24.3813 31.4457Z" fill="white"/>
<path fill-rule="evenodd" clip-rule="evenodd" d="M33.8223 15.5659C33.7509 15.4764 33.6888 15.3853 33.637 15.2947C33.6327 15.2872 33.6284 15.2797 33.6243 15.2722C33.5823 15.1965 33.5475 15.1212 33.5205 15.0476C33.4154 14.7874 33.468 14.6312 33.468 14.6312C33.468 14.6312 33.573 14.5791 33.7831 14.6312C33.9663 14.6715 34.1434 14.7032 34.3137 14.7275C34.333 14.7303 34.3522 14.7329 34.3713 14.7355C34.3993 14.7393 34.4272 14.7428 34.4548 14.7462C34.4629 14.7472 34.4709 14.7481 34.479 14.7491C35.543 14.8752 36.3238 14.7174 36.6719 14.6312C36.8713 15.1005 37.0234 15.5112 37.1394 15.8744C37.2679 16.2767 37.3521 16.6208 37.4073 16.9217C37.1537 16.8903 36.8043 16.8399 36.3478 16.7477C36.048 16.6871 35.7019 16.6084 35.3063 16.5053C34.7332 16.3716 34.2466 16.0449 33.9161 15.6767C33.8833 15.6401 33.852 15.6032 33.8223 15.5659Z" fill="white"/>
<path fill-rule="evenodd" clip-rule="evenodd" d="M32.5227 14.423C32.3126 15.412 33.4681 17.0258 35.0964 17.3902C35.9264 17.5772 36.5396 17.6836 36.9944 17.748C37.1728 17.7732 37.3268 17.792 37.46 17.8067C37.417 18.1472 37.3038 18.4529 37.1779 18.7807C37.171 18.7984 37.1642 18.8163 37.1573 18.8342C37.1358 18.89 37.1141 18.9465 37.0923 19.004C36.9347 19.3164 36.6196 19.5246 36.2519 19.4205L30.4217 18.119C30.2116 18.067 30.054 17.9629 30.0015 17.8067C29.5813 17.182 28.6359 15.36 29.5288 13.8503C30.5707 12.0096 33.6441 11.2917 35.5145 12.8656C35.8128 13.1166 36.0805 13.4259 36.3044 13.7983C36.0506 13.8297 35.6433 13.8802 35.1175 13.8693C34.7729 13.8621 34.3775 13.8286 33.9408 13.7462C33.0479 13.538 32.6277 13.9544 32.5227 14.423ZM32.2481 13.0907C31.8515 13.3926 31.635 13.8114 31.5469 14.2042L31.5468 14.2042L31.5445 14.2152C31.3488 15.1366 31.7921 16.0934 32.3446 16.7722C32.6464 17.1429 33.0271 17.4916 33.4711 17.7751L30.7835 17.1752C30.6157 16.91 30.3725 16.446 30.2439 15.922C30.1031 15.3482 30.1228 14.8103 30.3895 14.3594L30.3991 14.3429C30.7285 13.7608 31.4178 13.2829 32.2481 13.0907Z" fill="white"/>
<path fill-rule="evenodd" clip-rule="evenodd" d="M13.1306 29.0011C13.1339 28.993 13.1392 28.976 13.1392 28.947C13.1392 28.9179 13.1339 28.901 13.1306 28.8928C13.1271 28.8844 13.1234 28.8796 13.1201 28.8764C13.1168 28.8731 13.1109 28.8684 13.1 28.864C13.0893 28.8597 13.069 28.8538 13.0362 28.8538H6.10301C6.07017 28.8538 6.04987 28.8597 6.03917 28.864C6.02827 28.8684 6.02238 28.8731 6.01909 28.8764C6.01583 28.8796 6.01207 28.8844 6.00862 28.8928C6.00527 28.901 6 28.9179 6 28.947C6 28.976 6.00527 28.993 6.00862 29.0011C6.01207 29.0095 6.01583 29.0144 6.01909 29.0176C6.02238 29.0208 6.02827 29.0256 6.03917 29.03C6.04987 29.0343 6.07017 29.0402 6.10301 29.0402H13.0362C13.069 29.0402 13.0893 29.0343 13.1 29.03C13.1109 29.0256 13.1168 29.0208 13.1201 29.0176C13.1234 29.0144 13.1271 29.0095 13.1306 29.0011ZM14.1392 28.947C14.1392 29.5717 13.6665 30.0402 13.0362 30.0402H6.10301C5.47272 30.0402 5 29.5717 5 28.947C5 28.3223 5.47272 27.8538 6.10301 27.8538H13.0362C13.6665 27.8538 14.1392 28.3223 14.1392 28.947Z" fill="white"/>
<path fill-rule="evenodd" clip-rule="evenodd" d="M13.8662 33.7384C13.8695 33.7302 13.8748 33.7133 13.8748 33.6842C13.8748 33.6552 13.8695 33.6382 13.8662 33.63C13.8627 33.6217 13.8589 33.6168 13.8557 33.6136C13.8524 33.6103 13.8465 33.6056 13.8356 33.6012C13.8249 33.5969 13.8046 33.591 13.7718 33.591H6.84597C6.84179 33.5932 6.83419 33.5984 6.82389 33.6093C6.81182 33.6221 6.80182 33.6376 6.79542 33.6531C6.78922 33.6682 6.78809 33.6789 6.78809 33.6842C6.78809 33.7133 6.79336 33.7302 6.7967 33.7384C6.80015 33.7468 6.80391 33.7516 6.80718 33.7548C6.81046 33.7581 6.81636 33.7628 6.82726 33.7672C6.83796 33.7715 6.85826 33.7774 6.89109 33.7774H13.7718C13.8046 33.7774 13.8249 33.7715 13.8356 33.7672C13.8465 33.7628 13.8524 33.7581 13.8557 33.7548C13.8589 33.7516 13.8627 33.7468 13.8662 33.7384ZM6.84964 33.5895C6.84965 33.5896 6.84901 33.5899 6.84764 33.5902C6.84894 33.5896 6.84962 33.5894 6.84964 33.5895ZM14.8748 33.6842C14.8748 34.3089 14.4021 34.7774 13.7718 34.7774H6.89109C6.2608 34.7774 5.78809 34.3089 5.78809 33.6842C5.78809 33.1116 6.2608 32.591 6.83857 32.591H13.7718C14.4021 32.591 14.8748 33.0595 14.8748 33.6842Z" fill="white"/>
<path fill-rule="evenodd" clip-rule="evenodd" d="M14.5596 38.3282H7.62645C7.59361 38.3282 7.57331 38.3341 7.56261 38.3384C7.55171 38.3428 7.54581 38.3475 7.54253 38.3508C7.53926 38.354 7.5355 38.3589 7.53206 38.3672C7.52871 38.3754 7.52344 38.3924 7.52344 38.4214C7.52344 38.4505 7.52871 38.4674 7.53206 38.4756C7.5355 38.484 7.53926 38.4888 7.54253 38.492C7.54582 38.4953 7.55171 38.5 7.56261 38.5044C7.57331 38.5087 7.59361 38.5146 7.62645 38.5146H14.5596C14.5925 38.5146 14.6128 38.5087 14.6235 38.5044C14.6344 38.5 14.6403 38.4953 14.6436 38.492C14.6468 38.4888 14.6506 38.484 14.654 38.4756C14.6574 38.4674 14.6626 38.4505 14.6626 38.4214C14.6626 38.4073 14.6601 38.3984 14.657 38.3915C14.6534 38.3834 14.6469 38.373 14.6356 38.3622C14.6099 38.3376 14.5791 38.3282 14.5596 38.3282ZM7.62645 37.3282H14.5596C15.1374 37.3282 15.6626 37.7967 15.6626 38.4214C15.6626 39.0461 15.1899 39.5146 14.5596 39.5146H7.62645C6.99616 39.5146 6.52344 39.0461 6.52344 38.4214C6.52344 37.7967 6.99616 37.3282 7.62645 37.3282Z" fill="white"/>
</svg>
