<svg width="33" height="33" viewBox="0 0 33 33" fill="none" xmlns="http://www.w3.org/2000/svg">
<path d="M16.4285 0.620117C7.5918 0.620117 0.428467 7.78345 0.428467 16.6201C0.428467 25.4568 7.5918 32.6201 16.4285 32.6201C25.2651 32.6201 32.4285 25.4568 32.4285 16.6201C32.4285 7.78345 25.2651 0.620117 16.4285 0.620117ZM12.5118 23.2518H9.2718V12.8251H12.5118V23.2518ZM10.8718 11.5451C9.84847 11.5451 9.1868 10.8201 9.1868 9.92345C9.1868 9.00845 9.86847 8.30512 10.9135 8.30512C11.9585 8.30512 12.5985 9.00845 12.6185 9.92345C12.6185 10.8201 11.9585 11.5451 10.8718 11.5451ZM24.3451 23.2518H21.1051V17.4735C21.1051 16.1285 20.6351 15.2151 19.4635 15.2151C18.5685 15.2151 18.0368 15.8335 17.8018 16.4285C17.7151 16.6401 17.6935 16.9401 17.6935 17.2385V23.2501H14.4518V16.1501C14.4518 14.8485 14.4101 13.7601 14.3668 12.8235H17.1818L17.3301 14.2718H17.3951C17.8218 13.5918 18.8668 12.5884 20.6151 12.5884C22.7468 12.5884 24.3451 14.0168 24.3451 17.0868V23.2518Z" fill="#444B51"/>
</svg>
