<svg width="33" height="33" viewBox="0 0 33 33" fill="none" xmlns="http://www.w3.org/2000/svg">
<path d="M16.8574 0.620117C8.02171 0.620117 0.857422 7.7844 0.857422 16.6201C0.857422 25.4558 8.02171 32.6201 16.8574 32.6201C25.6931 32.6201 32.8574 25.4558 32.8574 16.6201C32.8574 7.7844 25.6931 0.620117 16.8574 0.620117ZM24.5467 12.6808C24.5574 12.8487 24.5574 13.0237 24.5574 13.1951C24.5574 18.438 20.5646 24.4773 13.2681 24.4773C11.0181 24.4773 8.93242 23.8237 7.17528 22.6987C7.49671 22.7344 7.80385 22.7487 8.13242 22.7487C9.98957 22.7487 11.6967 22.1201 13.0574 21.0558C11.3146 21.0201 9.85028 19.8773 9.35028 18.3058C9.96099 18.3951 10.511 18.3951 11.1396 18.2344C10.2422 18.0521 9.43555 17.5647 8.85677 16.8551C8.27799 16.1454 7.96273 15.2573 7.96457 14.3415V14.2915C8.48956 14.588 9.10742 14.7701 9.75385 14.7951C9.21043 14.433 8.76477 13.9423 8.45639 13.3667C8.14801 12.791 7.98643 12.1482 7.98599 11.4951C7.98599 10.7558 8.17885 10.0808 8.52528 9.49512C9.52136 10.7213 10.7643 11.7242 12.1734 12.4386C13.5824 13.1529 15.126 13.5628 16.7039 13.6415C16.1431 10.9451 18.1574 8.76297 20.5789 8.76297C21.7217 8.76297 22.7503 9.24155 23.4753 10.013C24.3717 9.84512 25.2289 9.5094 25.9931 9.0594C25.6967 9.97726 25.0753 10.7523 24.2503 11.2415C25.0503 11.1558 25.8217 10.9344 26.536 10.6237C25.9967 11.4165 25.3217 12.1201 24.5467 12.6808Z" fill="#444B51"/>
</svg>
