<svg width="33" height="33" viewBox="0 0 33 33" fill="none" xmlns="http://www.w3.org/2000/svg">
<path d="M16.2859 0.620117C7.44922 0.620117 0.285889 7.78345 0.285889 16.6201C0.285889 25.4568 7.44922 32.6201 16.2859 32.6201C25.1226 32.6201 32.2859 25.4568 32.2859 16.6201C32.2859 7.78345 25.1226 0.620117 16.2859 0.620117ZM17.3809 20.4118C16.3542 20.3334 15.9242 19.8251 15.1209 19.3384C14.6792 21.6568 14.1392 23.8801 12.5392 25.0418C12.0442 21.5351 13.2626 18.9051 13.8292 16.1101C12.8642 14.4851 13.9442 11.2168 15.9809 12.0201C18.4859 13.0135 13.8109 18.0618 16.9492 18.6935C20.2259 19.3501 21.5642 13.0068 19.5326 10.9468C16.5959 7.96845 10.9876 10.8785 11.6776 15.1418C11.8442 16.1835 12.9226 16.5001 12.1076 17.9385C10.2292 17.5218 9.66756 16.0401 9.74089 14.0651C9.85589 10.8318 12.6459 8.56678 15.4426 8.25512C18.9809 7.86178 22.3009 9.55345 22.7609 12.8834C23.2759 16.6401 21.1626 20.7051 17.3809 20.4118Z" fill="#444B51"/>
</svg>
