<svg width="33" height="33" viewBox="0 0 33 33" fill="none" xmlns="http://www.w3.org/2000/svg">
<path d="M21.7141 16.6201C21.7141 17.9462 21.1873 19.218 20.2496 20.1557C19.312 21.0933 18.0402 21.6201 16.7141 21.6201C15.388 21.6201 14.1163 21.0933 13.1786 20.1557C12.2409 19.218 11.7141 17.9462 11.7141 16.6201C11.7141 16.3351 11.7441 16.0568 11.7958 15.7868H10.0474V22.4485C10.0474 22.9118 10.4224 23.2868 10.8858 23.2868H22.5441C22.7662 23.2863 22.979 23.1978 23.1358 23.0407C23.2927 22.8835 23.3808 22.6705 23.3808 22.4485V15.7868H21.6324C21.6841 16.0568 21.7141 16.3351 21.7141 16.6201ZM16.7141 19.9535C17.152 19.9533 17.5855 19.867 17.99 19.6993C18.3945 19.5317 18.762 19.286 19.0715 18.9763C19.381 18.6666 19.6265 18.299 19.794 17.8944C19.9614 17.4899 20.0476 17.0563 20.0474 16.6185C20.0473 16.1806 19.961 15.7471 19.7933 15.3426C19.6257 14.9381 19.38 14.5706 19.0703 14.2611C18.7606 13.9516 18.393 13.7061 17.9884 13.5386C17.5839 13.3711 17.1503 13.285 16.7124 13.2851C15.8282 13.2853 14.9802 13.6368 14.3551 14.2623C13.73 14.8877 13.3789 15.7358 13.3791 16.6201C13.3793 17.5044 13.7308 18.3524 14.3563 18.9775C14.9817 19.6026 15.8298 19.9537 16.7141 19.9535ZM20.7141 13.1201H22.7124C22.8452 13.1201 22.9726 13.0675 23.0666 12.9738C23.1606 12.8801 23.2137 12.7529 23.2141 12.6201V10.6218C23.2141 10.4887 23.1613 10.3611 23.0672 10.2671C22.9731 10.173 22.8455 10.1201 22.7124 10.1201H20.7141C20.5811 10.1201 20.4535 10.173 20.3594 10.2671C20.2653 10.3611 20.2124 10.4887 20.2124 10.6218V12.6201C20.2141 12.8951 20.4391 13.1201 20.7141 13.1201ZM16.7141 0.620117C12.4706 0.620117 8.40098 2.30583 5.4004 5.30641C2.39982 8.30699 0.714111 12.3767 0.714111 16.6201C0.714111 20.8636 2.39982 24.9332 5.4004 27.9338C8.40098 30.9344 12.4706 32.6201 16.7141 32.6201C18.8153 32.6201 20.8958 32.2063 22.837 31.4022C24.7783 30.5981 26.5421 29.4196 28.0278 27.9338C29.5136 26.4481 30.6921 24.6843 31.4962 22.7431C32.3003 20.8018 32.7141 18.7213 32.7141 16.6201C32.7141 14.519 32.3003 12.4384 31.4962 10.4972C30.6921 8.55597 29.5136 6.79215 28.0278 5.30641C26.5421 3.82067 24.7783 2.64212 22.837 1.83804C20.8958 1.03397 18.8153 0.620117 16.7141 0.620117ZM25.0474 23.1018C25.0474 24.1201 24.2141 24.9535 23.1958 24.9535H10.2324C9.21411 24.9535 8.38078 24.1201 8.38078 23.1018V10.1385C8.38078 9.12012 9.21411 8.28678 10.2324 8.28678H23.1958C24.2141 8.28678 25.0474 9.12012 25.0474 10.1385V23.1018Z" fill="#444B51"/>
</svg>
