<svg width="65" height="72" viewBox="0 0 65 72" fill="none" xmlns="http://www.w3.org/2000/svg">
<path d="M33.3124 1.15406L62.9307 15.8818C63.663 16.2073 63.9885 16.9396 63.9885 17.672C63.1748 30.8537 59.7573 41.5944 54.4683 50.3009C49.1793 59.0074 41.9375 65.6797 33.3937 70.7245C32.8241 71.1314 32.0918 71.05 31.4409 70.7245C22.9785 65.5983 15.818 58.926 10.529 50.3009C5.24006 41.5944 1.82256 30.8537 1.00887 17.672C0.927503 16.8583 1.41572 16.2073 2.06667 15.8818L31.685 1.15406C32.1732 0.909956 32.8241 0.991325 33.3124 1.15406ZM32.4987 24.3442C34.6956 24.3442 36.5671 25.2393 38.0318 26.6226C39.415 28.0058 40.3101 29.9587 40.3101 32.1556C40.3101 33.7017 39.8219 35.1663 39.0896 36.3868C38.6013 37.2005 37.9504 37.8515 37.2181 38.4211L39.415 44.8492C39.7405 45.8256 39.2523 46.8021 38.2759 47.2089C38.0318 47.2903 37.869 47.2903 37.6249 47.2903H27.3724C26.3146 47.2903 25.5009 46.4766 25.5009 45.4188C25.5009 45.1747 25.5823 44.8492 25.6637 44.6865L27.8606 38.4211C27.1283 37.8515 26.4774 37.2005 25.9891 36.3868C25.1755 35.1663 24.7686 33.7017 24.7686 32.1556C24.7686 29.9587 25.6637 28.0872 27.0469 26.6226C28.4302 25.2393 30.3017 24.3442 32.4987 24.3442ZM35.428 29.2264C34.6956 28.494 33.6378 28.0058 32.4987 28.0058C31.3595 28.0058 30.3831 28.494 29.6508 29.2264C28.9184 29.9587 28.4302 31.0165 28.4302 32.1556C28.4302 32.9693 28.6743 33.783 29.0812 34.3526C29.488 35.0036 30.139 35.5731 30.8713 35.8986C31.7663 36.3055 32.1732 37.2819 31.8477 38.1769L29.9762 43.5473H35.1025L33.231 38.1769C32.9055 37.2819 33.3124 36.3055 34.2074 35.8986C34.9397 35.5731 35.5093 35.0849 35.9975 34.3526C36.4044 33.7017 36.6485 32.9693 36.6485 32.1556C36.5671 31.0165 36.1603 29.9587 35.428 29.2264ZM60.2455 18.6484L32.4987 4.89704L4.75185 18.6484C5.6469 30.691 8.82029 40.4553 13.6211 48.3481C18.4218 56.1595 24.85 62.2622 32.4987 66.9816C40.1474 62.2622 46.5755 56.2409 51.3763 48.3481C56.177 40.4553 59.3504 30.691 60.2455 18.6484Z" stroke="#FF6A00" stroke-width="2"/>
</svg>
