<svg width="111" height="70" viewBox="0 0 111 70" fill="none" xmlns="http://www.w3.org/2000/svg">
<path d="M109.65 43.0553L97.3757 28.4977C97.0201 28.0674 96.4962 27.8428 95.9536 27.8428H79.188V21.7241C79.188 20.695 78.346 19.853 77.3169 19.853H71.5724C70.6181 8.7383 61.281 0 49.9418 0C38.6026 0 29.2468 8.7383 28.2925 19.853H20.2278C19.1987 19.853 18.3567 20.695 18.3567 21.7241V27.7867C18.3567 28.8158 19.1987 29.6578 20.2278 29.6578C21.257 29.6578 22.099 28.8158 22.099 27.7867V23.5953H28.2925C29.2468 34.71 38.5839 43.4483 49.9231 43.4483C61.2623 43.4483 70.5994 34.6913 71.5537 23.5953H75.427V29.6953V29.714V52.4298H53.1602C52.1311 52.4298 51.2891 53.2719 51.2891 54.301C51.2891 55.3301 52.1311 56.1721 53.1602 56.1721H75.4457V59.3157H49.1185C49.0062 58.7918 48.8378 58.2866 48.632 57.8001C48.6133 57.7626 48.5946 57.7439 48.5946 57.7252C48.3888 57.2574 48.1455 56.827 47.8836 56.3967C47.8087 56.2844 47.7339 56.1909 47.659 56.0786C47.4158 55.7418 47.1725 55.4424 46.8918 55.143C46.7796 55.0307 46.6673 54.9372 46.555 54.8249C46.2744 54.563 45.975 54.3197 45.6569 54.0952C45.5259 54.0016 45.3949 53.908 45.2639 53.8332C44.9271 53.6274 44.5903 53.4403 44.2161 53.2718C44.0851 53.2157 43.9541 53.1409 43.8231 53.0847C43.4115 52.9163 42.9811 52.7853 42.532 52.6731C42.4385 52.6544 42.3636 52.6169 42.2701 52.5982C41.7087 52.486 41.1474 52.4111 40.5673 52.4111C39.9873 52.4111 39.4072 52.486 38.8646 52.5982C38.771 52.6169 38.6962 52.6544 38.6026 52.6731C38.1535 52.7853 37.7232 52.9163 37.3115 53.0847C37.1805 53.1409 37.0496 53.197 36.9186 53.2718C36.5631 53.4403 36.2075 53.6274 35.8707 53.8332C35.7397 53.908 35.6088 54.0016 35.4965 54.0952C35.1784 54.3197 34.879 54.5629 34.5983 54.8436C34.4861 54.9372 34.3738 55.0494 34.2802 55.1617C33.9996 55.4611 33.7376 55.7792 33.4944 56.116C33.4195 56.2096 33.3447 56.3031 33.2698 56.4154C32.9891 56.8458 32.7459 57.2948 32.5401 57.7626C32.5401 57.7813 32.5213 57.8 32.5213 57.8188C32.3155 58.3053 32.1471 58.8105 32.0349 59.3531H22.1364V55.8728C22.1364 54.8436 21.2944 54.0016 20.2653 54.0016C19.2361 54.0016 18.3941 54.8436 18.3941 55.8728V61.2243C18.3941 62.2534 19.2361 63.0954 20.2653 63.0954H32.0536C32.9143 67.0436 36.4134 70 40.6048 70C44.7961 70 48.2952 67.0436 49.1559 63.0954H77.3356H84.2401C85.1009 67.0436 88.5999 70 92.7913 70C96.9827 70 100.482 67.0436 101.343 63.0954H108.247C109.276 63.0954 110.118 62.2534 110.118 61.2243V44.309C110.1 43.8225 109.931 43.3921 109.65 43.0553ZM49.9231 39.706C40.006 39.706 31.9413 31.6413 31.9413 21.7241C31.9413 11.807 40.006 3.74231 49.9231 3.74231C59.8403 3.74231 67.9049 11.807 67.9049 21.7241C67.9049 31.6413 59.8403 39.706 49.9231 39.706ZM40.5673 66.2203C37.798 66.2203 35.5526 63.9562 35.5526 61.1868C35.5526 58.4175 37.798 56.1721 40.5673 56.1721C43.3366 56.1721 45.582 58.4175 45.582 61.1868C45.582 63.9562 43.3179 66.2203 40.5673 66.2203ZM92.7539 66.2203C89.9846 66.2203 87.7392 63.9562 87.7392 61.1868C87.7392 58.4175 89.9846 56.1721 92.7539 56.1721C95.5232 56.1721 97.7686 58.4175 97.7686 61.1868C97.7686 63.9562 95.5232 66.2203 92.7539 66.2203ZM106.357 59.3157H101.324C101.212 58.8105 101.043 58.3053 100.856 57.8375C100.8 57.7065 100.725 57.5942 100.669 57.4819C100.501 57.1264 100.313 56.7709 100.108 56.4341C99.9953 56.2657 99.883 56.116 99.7708 55.9663C99.5649 55.7044 99.3591 55.4424 99.1346 55.1991C98.9849 55.0494 98.8352 54.8998 98.6855 54.7688C98.4422 54.5442 98.199 54.3384 97.937 54.1513C97.7686 54.0203 97.6002 53.908 97.4131 53.7958C97.1324 53.6274 96.8517 53.4777 96.5524 53.328C96.3652 53.2344 96.1781 53.1409 95.991 53.066C95.6542 52.935 95.2987 52.8415 94.9432 52.7479C94.7748 52.7105 94.6064 52.6357 94.4192 52.6169C93.8766 52.5047 93.334 52.4485 92.7539 52.4485C92.1926 52.4485 91.6312 52.5047 91.0886 52.6169C90.9202 52.6544 90.7518 52.7105 90.5834 52.7479C90.2279 52.8415 89.8723 52.935 89.5355 53.066C89.3484 53.1409 89.1613 53.2344 88.9742 53.328C88.6748 53.4777 88.3941 53.6274 88.1134 53.7958C87.9263 53.908 87.7579 54.0203 87.5895 54.1513C87.3276 54.3384 87.0843 54.5442 86.8411 54.7688C86.6914 54.9185 86.5417 55.0494 86.392 55.1991C86.1674 55.4424 85.9616 55.7044 85.7558 55.9663C85.6435 56.116 85.5125 56.2657 85.419 56.4341C85.1944 56.7709 85.026 57.1264 84.8576 57.4819C84.8015 57.6129 84.7267 57.7252 84.6705 57.8375C84.4647 58.3053 84.315 58.8105 84.2027 59.3157H79.1693V31.5851H95.0554L106.339 44.9452V59.3157H106.357Z" fill="#FF3366"/>
<path d="M92.4535 33.9053H84.8753C83.8462 33.9053 83.0042 34.7473 83.0042 35.7765V43.205C83.0042 44.2341 83.8462 45.0761 84.8753 45.0761H98.7219C99.4516 45.0761 100.107 44.6458 100.425 43.9909C100.724 43.336 100.63 42.5501 100.163 41.9887L93.8943 34.5602C93.5388 34.1486 93.0148 33.9053 92.4535 33.9053ZM86.7652 41.3338V37.6476H91.5928L94.6989 41.3338H86.7652Z" fill="#FF3366"/>
<path d="M6.64215 35.0281H23.7445C24.7737 35.0281 25.6157 34.1861 25.6157 33.157C25.6157 32.1278 24.7737 31.2858 23.7445 31.2858H6.64215C5.61302 31.2858 4.771 32.1278 4.771 33.157C4.771 34.1861 5.59431 35.0281 6.64215 35.0281Z" fill="#FF3366"/>
<path d="M6.64261 40.417H1.87116C0.842021 40.417 0 41.259 0 42.2882C0 43.3173 0.842021 44.1593 1.87116 44.1593H6.6239C7.65303 44.1593 8.49506 43.3173 8.49506 42.2882C8.49506 41.259 7.67175 40.417 6.64261 40.417Z" fill="#FF3366"/>
<path d="M11.0959 42.2882C11.0959 43.3173 11.938 44.1593 12.9671 44.1593H32.0342C33.0633 44.1593 33.9054 43.3173 33.9054 42.2882C33.9054 41.259 33.0633 40.417 32.0342 40.417H12.9671C11.938 40.417 11.0959 41.2403 11.0959 42.2882Z" fill="#FF3366"/>
<path d="M31.9406 50.5025C31.9406 49.4734 31.0986 48.6314 30.0695 48.6314H12.9671C11.938 48.6314 11.0959 49.4734 11.0959 50.5025C11.0959 51.5317 11.938 52.3737 12.9671 52.3737H30.0695C31.0986 52.3737 31.9406 51.5317 31.9406 50.5025Z" fill="#FF3366"/>
<path d="M56.6022 19.853H51.7933V10.4036C51.7933 9.37449 50.9513 8.53247 49.9222 8.53247C48.893 8.53247 48.051 9.37449 48.051 10.4036V21.7241C48.051 22.7533 48.893 23.5953 49.9222 23.5953H56.6022C57.6314 23.5953 58.4734 22.7533 58.4734 21.7241C58.4734 20.695 57.6501 19.853 56.6022 19.853Z" fill="#FF3366"/>
</svg>
