<svg width="71" height="70" viewBox="0 0 71 70" fill="none" xmlns="http://www.w3.org/2000/svg">
<path d="M31.9962 33.468C31.8855 33.0138 31.8883 32.5392 32.0043 32.0863C32.1203 31.6334 32.346 31.216 32.6614 30.8708C32.9883 30.4693 33.4228 30.1691 33.914 30.0055V29.5296C33.914 29.2395 34.0293 28.9612 34.2344 28.756C34.4396 28.5509 34.7179 28.4356 35.008 28.4356C35.2981 28.4356 35.5764 28.5509 35.7816 28.756C35.9867 28.9612 36.102 29.2395 36.102 29.5296V30.1226C36.599 30.3009 37.0657 30.5544 37.4859 30.8741C37.715 31.0523 37.8639 31.3141 37.8999 31.6021C37.9359 31.89 37.8561 32.1805 37.6779 32.4096C37.4998 32.6386 37.2379 32.7876 36.95 32.8236C36.662 32.8596 36.3715 32.7797 36.1425 32.6016C36.1337 32.595 34.8625 31.6552 34.3352 32.281C34.0387 32.6311 34.0923 32.8379 34.1164 32.9155C34.241 33.174 34.42 33.4026 34.6411 33.5855C34.8622 33.7685 35.1202 33.9016 35.3975 33.9756C36.0052 34.1651 36.5598 34.4953 37.016 34.9393C37.4722 35.3834 37.8172 35.9288 38.0231 36.5312C38.1337 36.9855 38.131 37.46 38.015 37.9129C37.899 38.3658 37.6733 38.7832 37.3579 39.1284C37.0293 39.5261 36.5934 39.8212 36.102 39.9784V40.4696C36.102 40.7598 35.9867 41.038 35.7816 41.2432C35.5764 41.4483 35.2981 41.5636 35.008 41.5636C34.7179 41.5636 34.4396 41.4483 34.2344 41.2432C34.0293 41.038 33.914 40.7598 33.914 40.4696V39.8657C33.418 39.6901 32.9514 39.4404 32.5301 39.1251C32.3006 38.9475 32.151 38.686 32.1143 38.3982C32.0776 38.1103 32.1567 37.8197 32.3343 37.5902C32.5118 37.3607 32.7733 37.2111 33.0611 37.1744C33.349 37.1377 33.6396 37.2168 33.8691 37.3944C33.8921 37.413 35.1579 38.3418 35.6808 37.7226C35.9773 37.3725 35.9237 37.1657 35.8996 37.0881C35.775 36.8295 35.596 36.601 35.3749 36.418C35.1538 36.2351 34.8958 36.102 34.6185 36.028C34.0109 35.8376 33.4567 35.5066 33.0011 35.0617C32.5454 34.6169 32.2011 34.0709 31.9962 33.468ZM24.068 34.9996C24.068 32.8359 24.7096 30.7207 25.9117 28.9217C27.1138 27.1226 28.8224 25.7204 30.8214 24.8924C32.8205 24.0643 35.0201 23.8477 37.1423 24.2698C39.2644 24.6919 41.2138 25.7339 42.7437 27.2639C44.2737 28.7938 45.3157 30.7432 45.7378 32.8653C46.1599 34.9875 45.9433 37.1871 45.1152 39.1862C44.2872 41.1852 42.885 42.8938 41.0859 44.0959C39.2869 45.298 37.1717 45.9396 35.008 45.9396C32.1075 45.9364 29.3267 44.7828 27.2758 42.7318C25.2248 40.6809 24.0712 37.9001 24.068 34.9996ZM26.256 34.9996C26.256 36.7306 26.7693 38.4227 27.731 39.862C28.6927 41.3012 30.0595 42.423 31.6588 43.0854C33.258 43.7478 35.0177 43.9211 36.7154 43.5834C38.4132 43.2457 39.9726 42.4122 41.1966 41.1882C42.4206 39.9642 43.2541 38.4048 43.5918 36.707C43.9295 35.0093 43.7562 33.2496 43.0938 31.6504C42.4314 30.0511 41.3096 28.6843 39.8703 27.7226C38.4311 26.7609 36.739 26.2476 35.008 26.2476C32.6876 26.2502 30.463 27.1731 28.8223 28.8139C27.1815 30.4546 26.2586 32.6792 26.256 34.9996ZM21.333 43.6641C21.4645 43.7201 21.6058 43.7499 21.7487 43.7516C21.8928 43.7531 22.0357 43.7258 22.1691 43.6713C22.3025 43.6168 22.4237 43.5363 22.5256 43.4344C22.6274 43.3326 22.708 43.2114 22.7624 43.078C22.8169 42.9446 22.8442 42.8017 22.8427 42.6576C22.841 42.5146 22.8113 42.3734 22.7552 42.2419C22.7023 42.108 22.6244 41.9855 22.5255 41.8809C22.3716 41.7291 22.1763 41.6262 21.964 41.5853C21.7518 41.5445 21.5322 41.5673 21.333 41.6511C21.1978 41.7013 21.0747 41.7796 20.972 41.8809C20.8754 41.9873 20.7977 42.1094 20.7422 42.2419C20.6862 42.3734 20.6564 42.5146 20.6547 42.6576C20.659 42.9472 20.7723 43.2246 20.972 43.4343C21.0766 43.5332 21.1991 43.6112 21.333 43.6641ZM19.2763 30.3063C19.2342 30.4443 19.2198 30.5891 19.2339 30.7326C19.248 30.8761 19.2903 31.0154 19.3584 31.1425C19.4265 31.2696 19.5191 31.382 19.6308 31.4732C19.7425 31.5643 19.8711 31.6325 20.0093 31.6738C20.1122 31.7044 20.2192 31.7192 20.3265 31.7176C20.5618 31.7183 20.7911 31.6431 20.9803 31.5032C21.1695 31.3633 21.3085 31.1661 21.3768 30.9409C21.4562 30.6609 21.4229 30.361 21.2838 30.1053C21.1447 29.8497 20.911 29.6587 20.6328 29.5734C20.3558 29.4917 20.0576 29.5229 19.8035 29.6602C19.5493 29.7976 19.3598 30.0298 19.2763 30.3063ZM21.2345 38.5551C21.162 38.2737 20.9806 38.0326 20.7303 37.8848C20.48 37.7371 20.1813 37.6949 19.8999 37.7674C19.6184 37.84 19.3773 38.0213 19.2296 38.2716C19.0819 38.5219 19.0396 38.8207 19.1122 39.1021C19.1749 39.3361 19.3127 39.5432 19.5044 39.6914C19.696 39.8396 19.9311 39.9208 20.1734 39.9226C20.2655 39.9225 20.3573 39.9115 20.4469 39.8898C20.5863 39.8541 20.7174 39.7912 20.8325 39.7048C20.9477 39.6183 21.0446 39.51 21.1178 39.386C21.191 39.262 21.2389 39.1248 21.259 38.9822C21.279 38.8396 21.2707 38.6945 21.2345 38.5551ZM18.598 34.6933C18.5951 34.837 18.6205 34.9798 18.6728 35.1136C18.7252 35.2475 18.8033 35.3697 18.9029 35.4733C19.0025 35.577 19.1215 35.66 19.2531 35.7176C19.3847 35.7752 19.5264 35.8063 19.6701 35.8092H19.692C19.9074 35.8091 20.1181 35.7455 20.2975 35.6262C20.4769 35.5069 20.6171 35.3373 20.7005 35.1387C20.7839 34.9401 20.8068 34.7213 20.7663 34.5097C20.7258 34.2981 20.6238 34.1031 20.473 33.9493C20.3222 33.7955 20.1293 33.6896 19.9185 33.6449C19.7078 33.6003 19.4885 33.6188 19.2883 33.6983C19.088 33.7778 18.9157 33.9146 18.7929 34.0916C18.6701 34.2686 18.6023 34.4779 18.598 34.6933ZM28.1049 22.4186C28.2765 22.4205 28.4458 22.3791 28.5972 22.2983C28.8357 22.176 29.0211 21.9705 29.1181 21.7206C29.2151 21.4707 29.2171 21.1939 29.1235 20.9427C29.0299 20.6915 28.8473 20.4834 28.6105 20.3579C28.3736 20.2324 28.0989 20.1983 27.8385 20.2619C27.5781 20.3256 27.3502 20.4826 27.1979 20.7032C27.0457 20.9238 26.9797 21.1927 27.0125 21.4587C27.0454 21.7247 27.1748 21.9695 27.3761 22.1464C27.5775 22.3233 27.8368 22.4202 28.1049 22.4186ZM22.613 25.9303C22.3687 25.8004 22.0843 25.7678 21.817 25.8392C21.5497 25.9105 21.3194 26.0805 21.1724 26.3149C21.0254 26.5493 20.9727 26.8306 21.0248 27.1023C21.0769 27.374 21.23 27.6159 21.4533 27.7792C21.6284 27.885 21.8286 27.9417 22.0332 27.9433C22.271 27.9461 22.5032 27.8708 22.6942 27.7289C22.8851 27.587 23.0241 27.3863 23.09 27.1577C23.1558 26.9291 23.1448 26.6853 23.0586 26.4635C22.9725 26.2418 22.8159 26.0545 22.613 25.9303ZM23.9586 22.8671C23.7434 23.0636 23.6146 23.3371 23.6002 23.6281C23.5859 23.9191 23.6872 24.204 23.882 24.4206C23.9862 24.5307 24.1117 24.6185 24.2509 24.6787C24.3901 24.7389 24.54 24.7702 24.6916 24.7707C24.9655 24.7674 25.2292 24.6665 25.4355 24.4863C25.6502 24.2904 25.7783 24.0173 25.7917 23.727C25.805 23.4367 25.7025 23.153 25.5066 22.9383C25.3108 22.7235 25.0376 22.5954 24.7473 22.5821C24.457 22.5688 24.1733 22.6713 23.9586 22.8671ZM32.4371 20.9745C32.571 20.9217 32.6935 20.8437 32.7981 20.7448C33.0015 20.5374 33.1154 20.2585 33.1154 19.968C33.1154 19.6776 33.0015 19.3987 32.7981 19.1913C32.6935 19.0924 32.571 19.0144 32.4371 18.9616C32.2379 18.8778 32.0183 18.8549 31.8061 18.8958C31.5938 18.9367 31.3985 19.0395 31.2446 19.1913C31.0413 19.3987 30.9273 19.6776 30.9273 19.968C30.9273 20.2585 31.0413 20.5374 31.2446 20.7448C31.4532 20.9463 31.7313 21.0599 32.0214 21.062C32.1643 21.0603 32.3056 21.0306 32.4371 20.9745ZM49.044 26.5649C48.8325 26.3697 48.5551 26.2613 48.2673 26.2613C47.9794 26.2613 47.7021 26.3697 47.4905 26.5649C47.394 26.6713 47.3163 26.7934 47.2608 26.9259C47.2047 27.0574 47.175 27.1986 47.1733 27.3416C47.1733 27.6318 47.2885 27.91 47.4937 28.1152C47.6989 28.3203 47.9771 28.4356 48.2673 28.4356C48.5574 28.4356 48.8357 28.3203 49.0409 28.1152C49.246 27.91 49.3613 27.6318 49.3613 27.3416C49.3596 27.1986 49.3298 27.0574 49.2738 26.9259C49.2183 26.7934 49.1406 26.6713 49.044 26.5649ZM48.6392 39.0583C48.5773 39.2654 48.5781 39.4861 48.6416 39.6927C48.705 39.8993 48.8282 40.0825 48.9956 40.2192C49.163 40.3558 49.3671 40.4399 49.5822 40.4606C49.7973 40.4814 50.0138 40.438 50.2042 40.3359C50.3947 40.2338 50.5507 40.0776 50.6525 39.887C50.7542 39.6964 50.7973 39.4799 50.7762 39.2648C50.755 39.0497 50.6707 38.8457 50.5337 38.6785C50.3968 38.5113 50.2134 38.3884 50.0067 38.3254C49.7282 38.2437 49.4287 38.2747 49.1729 38.4118C48.9171 38.549 48.7254 38.7812 48.6392 39.0583ZM49.5691 30.1094C49.3096 30.1745 49.0828 30.3324 48.9318 30.5533C48.7808 30.7743 48.716 31.0429 48.7497 31.3084C48.7834 31.5738 48.9132 31.8178 49.1146 31.994C49.316 32.1702 49.575 32.2665 49.8426 32.2646C49.9348 32.2645 50.0266 32.2535 50.1161 32.2318C50.2555 32.1959 50.3864 32.1329 50.5014 32.0463C50.6164 31.9598 50.7133 31.8515 50.7864 31.7276C50.8595 31.6036 50.9076 31.4665 50.9277 31.324C50.9479 31.1815 50.9397 31.0365 50.9038 30.8971C50.8679 30.7577 50.8049 30.6268 50.7184 30.5118C50.6319 30.3968 50.5236 30.3 50.3996 30.2268C50.2757 30.1537 50.1385 30.1057 49.9961 30.0855C49.8536 30.0654 49.7085 30.0735 49.5691 30.1094ZM47.403 44.0689C47.5743 44.1841 47.7764 44.2451 47.9828 44.2439C48.221 44.2447 48.453 44.1677 48.6434 44.0246C48.8339 43.8815 48.9725 43.6802 49.0381 43.4512C49.1037 43.2222 49.0927 42.9781 49.0069 42.7558C48.9211 42.5336 48.7651 42.3455 48.5627 42.22C48.4414 42.1313 48.3032 42.0686 48.1566 42.0356C48.01 42.0027 47.8582 42.0003 47.7107 42.0286C47.5631 42.0569 47.423 42.1153 47.299 42.2002C47.175 42.285 47.0699 42.3945 46.99 42.5217C46.9102 42.649 46.8574 42.7913 46.835 42.9399C46.8126 43.0884 46.8211 43.24 46.8598 43.3852C46.8986 43.5303 46.9668 43.6659 47.0603 43.7836C47.1537 43.9012 47.2704 43.9983 47.403 44.0689ZM41.4188 47.7009C41.2 47.8131 41.0253 47.9957 40.9229 48.2192C40.8206 48.4428 40.7965 48.6944 40.8547 48.9333C40.9128 49.1723 41.0498 49.3846 41.2434 49.5362C41.4371 49.6877 41.6762 49.7696 41.9221 49.7686C42.093 49.7651 42.2611 49.724 42.4144 49.6483C42.5466 49.5855 42.665 49.4969 42.7623 49.3875C42.8597 49.2782 42.9341 49.1505 42.9812 49.0119C43.0283 48.8733 43.0472 48.7266 43.0365 48.5806C43.0259 48.4346 42.9861 48.2922 42.9195 48.1619C42.8529 48.0315 42.7608 47.9159 42.6486 47.8218C42.5365 47.7277 42.4066 47.6571 42.2666 47.6141C42.1267 47.5711 41.9796 47.5566 41.8339 47.5716C41.6883 47.5865 41.5472 47.6305 41.4188 47.7009ZM44.5149 47.0555C44.6171 47.1688 44.742 47.2595 44.8814 47.3217C45.0209 47.3838 45.1718 47.4161 45.3244 47.4165C45.5954 47.415 45.8563 47.3137 46.0574 47.1321C46.2182 46.987 46.3323 46.7975 46.3853 46.5876C46.4383 46.3776 46.4278 46.1567 46.3551 45.9527C46.2825 45.7487 46.1509 45.5709 45.9771 45.4417C45.8033 45.3126 45.5951 45.2379 45.3788 45.2271C45.1625 45.2164 44.9479 45.2701 44.7622 45.3814C44.5765 45.4927 44.4279 45.6566 44.3354 45.8524C44.2429 46.0482 44.2106 46.267 44.2425 46.4812C44.2745 46.6953 44.3692 46.8952 44.5149 47.0555ZM51.418 35.3059C51.4223 35.0896 51.3623 34.8769 51.2457 34.6946C51.1291 34.5124 50.9611 34.3688 50.7629 34.2821C50.5647 34.1953 50.3452 34.1693 50.1322 34.2072C49.9192 34.2452 49.7223 34.3455 49.5663 34.4954C49.4102 34.6453 49.3022 34.8381 49.2557 35.0494C49.2093 35.2607 49.2265 35.481 49.3053 35.6825C49.384 35.884 49.5208 36.0577 49.6982 36.1815C49.8756 36.3053 50.0858 36.3737 50.3021 36.378H50.324C50.6104 36.3781 50.8854 36.2658 51.0899 36.0654C51.2945 35.8649 51.4123 35.5923 51.418 35.3059ZM37.2179 49.2544C37.0658 49.4078 36.9625 49.6027 36.921 49.8147C36.8795 50.0267 36.9017 50.2462 36.9848 50.4455C37.0678 50.6449 37.208 50.8153 37.3878 50.9351C37.5675 51.0549 37.7786 51.1188 37.9946 51.1188C38.2106 51.1188 38.4218 51.0549 38.6015 50.9351C38.7812 50.8153 38.9214 50.6449 39.0045 50.4455C39.0875 50.2462 39.1097 50.0267 39.0682 49.8147C39.0268 49.6027 38.9235 49.4078 38.7714 49.2544C38.5592 49.0604 38.2821 48.9528 37.9946 48.9528C37.7071 48.9528 37.43 49.0604 37.2179 49.2544ZM59.076 54.0461C59.0776 54.8201 58.8651 55.5795 58.4622 56.2403C58.0593 56.9012 57.4816 57.4378 56.7928 57.7909L35.1174 68.9595C33.6703 69.6991 32.0577 70.055 30.4338 69.9931C28.8099 69.9313 27.229 69.4537 25.8425 68.6062L21.7947 66.1184C21.2796 65.8008 20.6866 65.6322 20.0815 65.6316H15.316V67.8196C15.316 68.1097 15.2007 68.388 14.9956 68.5932C14.7904 68.7983 14.5121 68.9136 14.222 68.9136H7.658C7.36785 68.9136 7.08959 68.7983 6.88443 68.5932C6.67926 68.388 6.564 68.1097 6.564 67.8196V66.7256H1.094C0.803853 66.7256 0.52559 66.6103 0.320425 66.4052C0.11526 66.2 0 65.9218 0 65.6316C0 65.3415 0.11526 65.0632 0.320425 64.858C0.52559 64.6529 0.803853 64.5376 1.094 64.5376H6.564V47.0336H1.094C0.803853 47.0336 0.52559 46.9183 0.320425 46.7132C0.11526 46.508 0 46.2297 0 45.9396C0 45.6495 0.11526 45.3712 0.320425 45.166C0.52559 44.9609 0.803853 44.8456 1.094 44.8456H6.564V43.7516C6.564 43.4615 6.67926 43.1832 6.88443 42.978C7.08959 42.7729 7.36785 42.6576 7.658 42.6576H14.222C14.5121 42.6576 14.7904 42.7729 14.9956 42.978C15.2007 43.1832 15.316 43.4615 15.316 43.7516V45.9396H23.7934C25.9231 45.9438 27.9947 46.6344 29.701 47.9088L37.7496 53.9455C38.5233 54.5238 39.0797 55.3458 39.3293 56.279L53.1684 50.1898C53.8096 49.9081 54.5109 49.7907 55.2089 49.8482C55.9068 49.9057 56.5795 50.1362 57.1659 50.5191C57.7524 50.9019 58.2341 51.4249 58.5676 52.0407C58.9011 52.6565 59.0759 53.3458 59.076 54.0461ZM13.128 44.8456H8.752V66.7256H13.128V44.8456ZM56.888 54.0461C56.8885 53.7088 56.8047 53.3767 56.6442 53.08C56.4837 52.7833 56.2516 52.5314 55.9689 52.3473C55.6863 52.1631 55.3621 52.0526 55.0259 52.0256C54.6896 51.9986 54.352 52.0561 54.0436 52.1929L39.2505 58.7044C39.209 58.8324 39.1772 58.9615 39.1236 59.0873C38.877 59.6626 38.508 60.1772 38.0423 60.5954C37.5765 61.0135 37.0252 61.3251 36.4268 61.5085C35.8283 61.6919 35.1971 61.7426 34.577 61.6572C33.957 61.5718 33.363 61.3522 32.8364 61.0138L24.4126 55.5952C24.288 55.5194 24.1799 55.4193 24.0945 55.301C24.0092 55.1827 23.9484 55.0485 23.9156 54.9063C23.8829 54.7642 23.879 54.6169 23.904 54.4732C23.9291 54.3295 23.9826 54.1922 24.0615 54.0695C24.1403 53.9468 24.2429 53.8411 24.3633 53.7586C24.4836 53.6761 24.6192 53.6185 24.7621 53.5892C24.905 53.5599 25.0524 53.5595 25.1954 53.588C25.3385 53.6165 25.4744 53.6733 25.5952 53.7551L34.0234 59.177C34.485 59.4749 35.0443 59.5819 35.5833 59.4754C36.1223 59.3689 36.5988 59.0572 36.9124 58.6061C37.226 58.155 37.3521 57.5997 37.2642 57.0574C37.1763 56.5151 36.8812 56.0281 36.4411 55.6992L28.3882 49.6592C27.061 48.6682 25.4498 48.1311 23.7934 48.1276H15.316V63.4436H20.0815C21.0915 63.4438 22.0816 63.7249 22.9412 64.2553L26.989 66.7431C28.0544 67.3942 29.2691 67.7609 30.5169 67.8083C31.7646 67.8556 33.0036 67.5819 34.1153 67.0133L55.794 55.8458C56.1245 55.6758 56.4016 55.4177 56.5946 55.1002C56.7877 54.7826 56.8892 54.4178 56.888 54.0461ZM70.016 24.0596C70.016 24.3498 69.9007 24.628 69.6956 24.8332C69.4904 25.0383 69.2121 25.1536 68.922 25.1536H63.452V26.2476C63.452 26.5378 63.3367 26.816 63.1316 27.0212C62.9264 27.2263 62.6481 27.3416 62.358 27.3416H55.794C55.5039 27.3416 55.2256 27.2263 55.0204 27.0212C54.8153 26.816 54.7 26.5378 54.7 26.2476V24.0596H46.2226C44.0929 24.0554 42.0213 23.3648 40.315 22.0904L32.2664 16.0537C31.4927 15.4754 30.9363 14.6534 30.6867 13.7202L16.8476 19.8094C15.8458 20.2476 14.7128 20.2791 13.6881 19.8973C12.6635 19.5155 11.8274 18.7502 11.3567 17.7632C10.8859 16.7763 10.8173 15.6449 11.1654 14.6083C11.5135 13.5717 12.251 12.7111 13.2221 12.2083L34.8986 1.03966C36.3458 0.300606 37.9583 -0.0549747 39.5821 0.00689007C41.2059 0.0687548 42.7868 0.545998 44.1735 1.39302L48.2213 3.88077C48.7364 4.19844 49.3294 4.36697 49.9345 4.3676H54.7V2.17961C54.7 1.88946 54.8153 1.61119 55.0204 1.40603C55.2256 1.20087 55.5039 1.08561 55.794 1.08561H62.358C62.6481 1.08561 62.9264 1.20087 63.1316 1.40603C63.3367 1.61119 63.452 1.88946 63.452 2.17961V3.2736H68.922C69.2121 3.2736 69.4904 3.38887 69.6956 3.59403C69.9007 3.79919 70.016 4.07746 70.016 4.3676C70.016 4.65775 69.9007 4.93601 69.6956 5.14118C69.4904 5.34634 69.2121 5.46161 68.922 5.46161H63.452V22.9656H68.922C69.2121 22.9656 69.4904 23.0809 69.6956 23.286C69.9007 23.4912 70.016 23.7695 70.016 24.0596ZM54.7 21.8716V6.5556H49.9345C48.9245 6.5554 47.9344 6.27435 47.0748 5.74386L43.027 3.2561C41.9617 2.60472 40.7469 2.2378 39.4991 2.19048C38.2513 2.14317 37.0123 2.41705 35.9007 2.98588L14.222 14.1534C13.8915 14.3234 13.6144 14.5815 13.4214 14.8991C13.2283 15.2166 13.1268 15.5814 13.128 15.9531C13.1275 16.2904 13.2113 16.6225 13.3718 16.9192C13.5323 17.2159 13.7644 17.4678 14.0471 17.6519C14.3297 17.8361 14.6539 17.9466 14.9901 17.9736C15.3264 18.0006 15.664 17.9431 15.9724 17.8063L30.7698 11.2948C30.8114 11.1668 30.8431 11.0377 30.8967 10.9119C31.1433 10.3366 31.5124 9.82198 31.9781 9.40384C32.4439 8.98569 32.9952 8.67408 33.5936 8.4907C34.1921 8.30732 34.8233 8.25658 35.4434 8.34201C36.0634 8.42745 36.6574 8.647 37.184 8.98538L45.6078 14.404C45.7323 14.4799 45.8405 14.5799 45.9258 14.6982C46.0112 14.8165 46.072 14.9507 46.1047 15.0929C46.1374 15.235 46.1414 15.3823 46.1164 15.526C46.0913 15.6697 46.0378 15.807 45.9589 15.9297C45.8801 16.0524 45.7774 16.1582 45.6571 16.2406C45.5368 16.3231 45.4012 16.3807 45.2582 16.41C45.1153 16.4393 44.968 16.4397 44.8249 16.4112C44.6819 16.3827 44.5459 16.3259 44.4252 16.2441L35.9926 10.8222C35.531 10.5243 34.9717 10.4173 34.4327 10.5238C33.8937 10.6303 33.4172 10.942 33.1036 11.3931C32.79 11.8442 32.6639 12.3995 32.7518 12.9418C32.8397 13.4841 33.1348 13.9711 33.5749 14.3L41.6278 20.34C42.955 21.331 44.5662 21.8681 46.2226 21.8716H54.7ZM61.264 3.2736H56.888V25.1536H61.264V3.2736Z" fill="#2A9DF4"/>
</svg>
