<svg width="92" height="70" viewBox="0 0 92 70" fill="none" xmlns="http://www.w3.org/2000/svg">
<path d="M1.52174 45.6525H10.815C12.8053 51.8972 16.5108 57.4569 21.5087 61.6971C26.5065 65.9374 32.5956 68.6875 39.0812 69.6337C45.5669 70.58 52.1879 69.6842 58.1889 67.0487C64.1899 64.4132 69.3294 60.144 73.0209 54.7281L73.6966 57.8979L76.6731 57.2634L75.2229 50.4596C75.1504 50.1187 74.963 49.8129 74.6921 49.5936C74.4212 49.3742 74.0832 49.2545 73.7346 49.2544H66.9568V52.2979H70.9955C67.7623 57.3232 63.1843 61.3408 57.7817 63.8941C52.3791 66.4474 46.3686 67.4339 40.4333 66.7417C34.498 66.0495 28.8759 63.7062 24.2059 59.9782C19.5359 56.2502 16.0052 51.2869 14.0153 45.6525H19.7827C20.1863 45.6525 20.5733 45.4921 20.8587 45.2067C21.1441 44.9214 21.3044 44.5343 21.3044 44.1307V25.8698C21.3044 25.4662 21.1441 25.0791 20.8587 24.7937C20.5733 24.5083 20.1863 24.348 19.7827 24.348H1.52174C1.11815 24.348 0.731091 24.5083 0.445709 24.7937C0.160326 25.0791 0 25.4662 0 25.8698V44.1307C0 44.5343 0.160326 44.9214 0.445709 45.2067C0.731091 45.4921 1.11815 45.6525 1.52174 45.6525ZM12.174 27.3915V32.5381L11.3324 32.1165C11.1212 32.011 10.8883 31.956 10.6522 31.956C10.4161 31.956 10.1832 32.011 9.97199 32.1165L9.13047 32.5381V27.3915H12.174ZM3.04349 27.3915H6.08698V35.0002C6.08556 35.2603 6.15081 35.5164 6.2765 35.7441C6.4022 35.9717 6.58415 36.1634 6.80499 36.3008C7.02583 36.4381 7.27818 36.5166 7.53797 36.5287C7.79776 36.5408 8.05631 36.4861 8.28894 36.3698L10.6522 35.1798L13.0155 36.3622C13.2475 36.4782 13.5054 36.5329 13.7646 36.5211C14.0237 36.5094 14.2756 36.4316 14.4962 36.2951C14.7168 36.1587 14.8989 35.9681 15.0251 35.7414C15.1514 35.5148 15.2176 35.2597 15.2174 35.0002V27.3915H18.2609V42.609H3.04349V27.3915Z" fill="#36398E"/>
<path d="M91.1526 34.32L88.1091 28.233C87.9822 27.9789 87.7866 27.7654 87.5445 27.6166C87.3025 27.4679 87.0237 27.3899 86.7396 27.3915H79.1308V25.8697C79.1308 25.4661 78.9705 25.0791 78.6851 24.7937C78.3998 24.5083 78.0127 24.348 77.6091 24.348H77.4463C75.4537 18.1019 71.7458 12.5415 66.7454 8.30111C61.7451 4.06071 55.6537 1.31099 49.166 0.365591C42.6782 -0.579811 36.0554 0.317166 30.0529 2.95421C24.0504 5.59126 18.9098 9.8622 15.2176 15.2799V12.9425H12.1741V19.7827C12.1741 19.9997 12.2205 20.2141 12.3102 20.4116C12.3998 20.6091 12.5307 20.7852 12.694 20.928C12.8572 21.0708 13.0491 21.1771 13.2568 21.2396C13.4645 21.3022 13.6832 21.3196 13.8982 21.2908L20.7674 20.3778L20.3626 17.3617L17.2263 17.7817C20.4485 12.7412 25.0217 8.70718 30.4248 6.13919C35.828 3.5712 41.8438 2.57251 47.7869 3.25691C53.73 3.94131 59.3613 6.28127 64.0393 10.0102C68.7173 13.7391 72.2539 18.7071 74.246 24.348H62.3917C61.9881 24.348 61.601 24.5083 61.3156 24.7937C61.0302 25.0791 60.8699 25.4661 60.8699 25.8697V41.0872C60.8699 41.4908 61.0302 41.8778 61.3156 42.1632C61.601 42.4486 61.9881 42.6089 62.3917 42.6089H65.7151C66.025 43.4984 66.6041 44.2695 67.3719 44.8151C68.1398 45.3607 69.0584 45.6538 70.0004 45.6538C70.9423 45.6538 71.861 45.3607 72.6288 44.8151C73.3967 44.2695 73.9757 43.4984 74.2856 42.6089H79.4108C79.7207 43.4984 80.2998 44.2695 81.0676 44.8151C81.8355 45.3607 82.7541 45.6538 83.6961 45.6538C84.638 45.6538 85.5567 45.3607 86.3245 44.8151C87.0924 44.2695 87.6714 43.4984 87.9813 42.6089H89.7831C90.1867 42.6089 90.5737 42.4486 90.8591 42.1632C91.1445 41.8778 91.3048 41.4908 91.3048 41.0872V35.0002C91.3048 34.9835 91.2942 34.9698 91.2942 34.953C91.2925 34.7343 91.2443 34.5185 91.1526 34.32ZM85.7991 30.435L87.3209 33.4784H79.1308V30.435H85.7991ZM63.9134 27.3915H76.0874V33.4784H63.9134V27.3915ZM63.9134 36.5219H76.0874V39.5654H74.2856C73.9757 38.6759 73.3967 37.9049 72.6288 37.3592C71.861 36.8136 70.9423 36.5205 70.0004 36.5205C69.0584 36.5205 68.1398 36.8136 67.3719 37.3592C66.6041 37.9049 66.025 38.6759 65.7151 39.5654H63.9134V36.5219ZM70.0004 42.6089C69.6994 42.6089 69.4052 42.5197 69.1549 42.3525C68.9047 42.1852 68.7096 41.9476 68.5945 41.6695C68.4793 41.3915 68.4492 41.0855 68.5079 40.7903C68.5666 40.4951 68.7115 40.224 68.9243 40.0111C69.1372 39.7983 69.4083 39.6534 69.7035 39.5947C69.9987 39.5359 70.3047 39.5661 70.5827 39.6813C70.8608 39.7964 71.0984 39.9915 71.2657 40.2417C71.4329 40.492 71.5221 40.7862 71.5221 41.0872C71.5221 41.4908 71.3618 41.8778 71.0764 42.1632C70.791 42.4486 70.404 42.6089 70.0004 42.6089ZM83.6961 42.6089C83.3951 42.6089 83.1009 42.5197 82.8506 42.3525C82.6004 42.1852 82.4053 41.9476 82.2902 41.6695C82.175 41.3915 82.1449 41.0855 82.2036 40.7903C82.2623 40.4951 82.4072 40.224 82.62 40.0111C82.8329 39.7983 83.104 39.6534 83.3992 39.5947C83.6944 39.5359 84.0004 39.5661 84.2784 39.6813C84.5565 39.7964 84.7942 39.9915 84.9614 40.2417C85.1286 40.492 85.2178 40.7862 85.2178 41.0872C85.2178 41.4908 85.0575 41.8778 84.7721 42.1632C84.4867 42.4486 84.0997 42.6089 83.6961 42.6089ZM87.9813 39.5654C87.6714 38.6759 87.0924 37.9049 86.3245 37.3592C85.5567 36.8136 84.638 36.5205 83.6961 36.5205C82.7541 36.5205 81.8355 36.8136 81.0676 37.3592C80.2998 37.9049 79.7207 38.6759 79.4108 39.5654H79.1308V36.5219H88.2613V39.5654H87.9813Z" fill="#36398E"/>
<path d="M56.3045 35.0002C56.3045 32.5924 55.5905 30.2387 54.2528 28.2367C52.9151 26.2347 51.0138 24.6744 48.7893 23.753C46.5648 22.8315 44.117 22.5905 41.7555 23.0602C39.394 23.5299 37.2248 24.6894 35.5222 26.3919C33.8197 28.0945 32.6602 30.2637 32.1905 32.6252C31.7207 34.9867 31.9618 37.4345 32.8832 39.659C33.8047 41.8835 35.365 43.7848 37.367 45.1225C39.369 46.4602 41.7227 47.1742 44.1305 47.1742C47.3581 47.1706 50.4525 45.8868 52.7348 43.6045C55.0171 41.3222 56.3008 38.2279 56.3045 35.0002ZM53.261 35.0002C53.257 37.1559 52.4912 39.2407 51.0989 40.8864C49.7066 42.5321 47.7774 43.6327 45.6523 43.9937V41.9105C45.9404 41.8332 46.2215 41.7314 46.4923 41.6061C47.1543 41.2754 47.7112 40.7667 48.1004 40.1372C48.4896 39.5077 48.6957 38.7823 48.6957 38.0422C48.6957 37.3021 48.4896 36.5766 48.1004 35.9472C47.7112 35.3177 47.1543 34.809 46.4923 34.4783L43.1262 32.7967C42.9697 32.7187 42.8382 32.5986 42.7462 32.45C42.6543 32.3013 42.6056 32.13 42.6056 31.9552C42.6056 31.7804 42.6543 31.6091 42.7462 31.4604C42.8382 31.3118 42.9697 31.1917 43.1262 31.1137C43.4372 30.9587 43.7799 30.878 44.1275 30.878C44.475 30.878 44.8178 30.9587 45.1288 31.1137L46.4907 31.7954C46.6696 31.8848 46.8643 31.938 47.0637 31.9521C47.2631 31.9662 47.4634 31.9408 47.653 31.8775C47.8427 31.8142 48.018 31.7142 48.1689 31.5831C48.3199 31.4521 48.4436 31.2925 48.5329 31.1137C48.6222 30.9348 48.6755 30.7401 48.6896 30.5407C48.7036 30.3413 48.6783 30.141 48.615 29.9514C48.5517 29.7618 48.4517 29.5865 48.3206 29.4355C48.1895 29.2845 48.03 29.1608 47.8512 29.0715L46.4907 28.3913C46.2194 28.266 45.9379 28.1642 45.6492 28.0869V26.0067C47.7749 26.3671 49.7048 27.4675 51.0977 29.1132C52.4906 30.759 53.2569 32.8442 53.261 35.0002ZM35 35.0002C35.004 32.8446 35.7698 30.7598 37.1621 29.1141C38.5544 27.4684 40.4836 26.3678 42.6088 26.0067V28.09C42.3206 28.1673 42.0396 28.2691 41.7688 28.3943C41.1067 28.7251 40.5498 29.2337 40.1607 29.8632C39.7715 30.4927 39.5653 31.2182 39.5653 31.9583C39.5653 32.6983 39.7715 33.4238 40.1607 34.0533C40.5498 34.6828 41.1067 35.1914 41.7688 35.5222L45.1349 37.2037C45.2913 37.2817 45.4228 37.4018 45.5148 37.5505C45.6068 37.6991 45.6555 37.8704 45.6555 38.0452C45.6555 38.22 45.6068 38.3914 45.5148 38.54C45.4228 38.6887 45.2913 38.8087 45.1349 38.8868C44.8238 39.0418 44.4811 39.1225 44.1336 39.1225C43.786 39.1225 43.4433 39.0418 43.1322 38.8868L41.7703 38.205C41.4091 38.0246 40.991 37.9951 40.608 38.1229C40.225 38.2508 39.9085 38.5256 39.7281 38.8868C39.5477 39.248 39.5182 39.6661 39.646 40.049C39.7739 40.432 40.0486 40.7485 40.4098 40.9289L41.7703 41.6092C42.0416 41.7344 42.3231 41.8362 42.6118 41.9135V43.9937C40.4861 43.6333 38.5562 42.533 37.1633 40.8872C35.7704 39.2415 35.0042 37.1563 35 35.0002Z" fill="#36398E"/>
</svg>
