<svg width="92" height="70" viewBox="0 0 92 70" fill="none" xmlns="http://www.w3.org/2000/svg">
<path d="M91.1365 50.4492L91.108 50.3894C91.0368 49.7371 90.8545 48.988 90.638 48.4639L90.4443 48.125L90.4529 48.1193L90.0655 47.4642L90.0541 47.4414L85.6307 39.9475H85.6278L84.1724 37.4325C83.4603 35.9969 82.4548 35.6295 82.4548 35.6295H69.8682V33.6214C69.8682 31.864 68.4184 30.4342 66.6382 30.4342H36.8477C35.0675 30.4342 33.6206 31.864 33.6206 33.6214V52.6709V55.4309V60.8883C33.6206 62.5915 35.002 63.9758 36.7025 63.9758H41.2826C41.6585 67.3596 44.4983 70 47.9732 70C51.4539 70 54.2936 67.3568 54.6696 63.9758H70.5831C70.9591 67.3596 73.8017 70 77.2823 70C80.7629 70 83.6056 67.3568 83.9815 63.9758H88.0632C89.7664 63.9758 91.1507 62.5915 91.1507 60.8883L91.1365 50.4492ZM83.654 42.0268L86.8498 47.4386H81.1987L79.9255 42.0268H83.654ZM36.3806 33.6214C36.3806 33.3879 36.5942 33.1942 36.8477 33.1942H66.6353C66.8888 33.1942 67.1053 33.3879 67.1053 33.6214V38.9563V52.668H36.3806V33.6214ZM47.9704 67.2371C45.7629 67.2371 43.9657 65.4342 43.9657 63.2267C43.9657 61.0136 45.7629 59.2106 47.9704 59.2106C50.1807 59.2106 51.9808 61.0136 51.9808 63.2267C51.9808 65.437 50.1835 67.2371 47.9704 67.2371ZM77.2795 67.2371C75.0692 67.2371 73.2691 65.4342 73.2691 63.2267C73.2691 61.0136 75.0692 59.2106 77.2795 59.2106C79.4926 59.2106 81.2899 61.0136 81.2899 63.2267C81.2899 65.437 79.4926 67.2371 77.2795 67.2371ZM88.0575 61.2073H83.7109C82.8479 58.4587 80.3072 56.4506 77.2795 56.4506C74.2517 56.4506 71.711 58.4587 70.848 61.2073H54.4047C53.5388 58.4587 51.001 56.4506 47.9732 56.4506C44.9483 56.4506 42.4105 58.4587 41.5503 61.2073H36.7025C36.5287 61.2073 36.3835 61.062 36.3835 60.8854V55.4281H69.8682V38.7113C69.8682 38.5319 70.0134 38.3952 70.19 38.3952H81.4095L82.0333 39.2639H73.9555C72.6595 39.2639 71.6056 40.3206 71.6056 41.6223V47.8544C71.6056 49.1504 72.6595 50.2014 73.9555 50.2014H88.2853C88.3338 50.435 88.3708 50.6685 88.3822 50.8565L88.3879 60.8854C88.3822 61.062 88.2369 61.2073 88.0575 61.2073ZM78.6865 47.4386H74.3628V42.0268H77.4133L78.6865 47.4386Z" fill="#2F80ED"/>
<path d="M34.9943 67.1375C29.8787 67.1375 25.2645 61.3525 22.533 52.745C25.2075 52.3946 28.053 52.1952 30.9554 52.0728V49.3184C27.7909 49.4466 24.6834 49.6688 21.7668 50.0704C20.71 45.9318 20.0834 41.2748 19.978 36.3843H30.9554V33.6186H19.9809C20.0863 28.7223 20.7129 24.0653 21.7696 19.9268C25.9224 20.4993 30.3829 20.8183 34.9943 20.8183C39.6086 20.8183 44.0719 20.5021 48.2247 19.9325C48.8542 22.3962 49.3099 25.0566 49.6147 27.8308H52.4032C52.1012 24.8999 51.6427 22.1 50.999 19.5081C54.9496 18.8302 58.5099 17.8902 61.5206 16.7253C63.8021 20.035 65.4513 23.7891 66.3656 27.828H69.2424C65.9241 11.9572 51.8307 0 34.9943 0C15.697 0.00854492 0 15.7084 0 35C0 54.2973 15.697 69.9972 34.9943 69.9972C37.0764 69.9972 39.1073 69.7807 41.0954 69.4303C40.1725 68.4135 39.4918 67.1887 39.093 65.8358C37.7828 66.6532 36.4099 67.1375 34.9943 67.1375ZM59.7888 14.4324C57.026 15.4293 53.8102 16.2467 50.2612 16.842C48.5579 11.2793 46.0913 6.77328 43.1148 3.84522C49.7343 5.57699 55.542 9.32536 59.7888 14.4324ZM34.9943 2.86255C40.1099 2.86255 44.7241 8.64746 47.4585 17.255C43.5478 17.7734 39.3437 18.0554 34.9943 18.0554C30.6449 18.0554 26.4465 17.7706 22.533 17.255C25.2673 8.64746 29.8816 2.86255 34.9943 2.86255ZM26.8766 3.84806C23.8973 6.77327 21.4307 11.2793 19.7302 16.842C16.1812 16.2467 12.9655 15.4293 10.2026 14.4324C14.4495 9.31966 20.2572 5.57129 26.8766 3.84806ZM8.46802 16.731C11.4844 17.8931 15.0448 18.833 18.9925 19.5138C17.9386 23.7748 17.3149 28.5372 17.218 33.6214H2.83122C3.09896 27.3722 5.12411 21.5702 8.46802 16.731ZM2.83122 36.3843H17.218C17.3149 41.4628 17.9386 46.2252 18.9925 50.4863C15.0419 51.1698 11.4815 52.1098 8.46517 53.269C5.1241 48.4298 3.09896 42.6335 2.83122 36.3843ZM10.1998 55.5676C12.9655 54.5707 16.1812 53.7533 19.7331 53.158C21.4364 58.7264 23.903 63.2324 26.8852 66.1633C20.26 64.4344 14.4466 60.686 10.1998 55.5676Z" fill="#2F80ED"/>
</svg>
