<svg width="72" height="72" viewBox="0 0 72 72" fill="none" xmlns="http://www.w3.org/2000/svg">
<path d="M34.4216 67.9645L28.5191 70.3499C24.021 72.1678 18.8959 70.0449 17.0007 65.5789L14.5138 59.7184C14.0872 58.7131 13.2869 57.9128 12.2816 57.4862L6.42112 54.9993C1.95506 53.1041 -0.167799 47.979 1.65005 43.4809L4.03549 37.5784C4.44466 36.5659 4.44466 35.4341 4.03549 34.4216L1.65005 28.5191C-0.167799 24.021 1.95506 18.8959 6.42112 17.0007L12.2816 14.5138C13.2869 14.0872 14.0872 13.2869 14.5138 12.2816L17.0007 6.42112C18.8959 1.95506 24.021 -0.167799 28.5191 1.65005L34.4216 4.03549C35.4341 4.44466 36.5659 4.44466 37.5784 4.03549L43.4809 1.65005C47.979 -0.167799 53.1041 1.95506 54.9993 6.42112L57.4862 12.2816C57.9128 13.2869 58.7131 14.0872 59.7184 14.5138L65.5789 17.0007C70.0449 18.8959 72.1678 24.021 70.3499 28.5191L67.9645 34.4216C67.5553 35.4341 67.5553 36.5659 67.9645 37.5784L70.3499 43.4809C72.1678 47.979 70.0449 53.1041 65.5789 54.9993L59.7184 57.4862C58.7131 57.9128 57.9128 58.7131 57.4862 59.7184L54.9993 65.5789C53.1041 70.0449 47.979 72.1678 43.4809 70.3499L37.5784 67.9645C36.5659 67.5553 35.4341 67.5553 34.4216 67.9645ZM39.3321 63.625L45.2347 66.0105C47.3653 66.8716 49.793 65.866 50.6907 63.7505L53.1777 57.89C54.0783 55.7678 55.7678 54.0783 57.89 53.1777L63.7505 50.6907C65.866 49.793 66.8716 47.3653 66.0105 45.2347L63.625 39.3321C62.7612 37.1947 62.7612 34.8053 63.625 32.6679L66.0105 26.7653C66.8716 24.6347 65.866 22.207 63.7505 21.3093L57.89 18.8223C55.7678 17.9217 54.0783 16.2322 53.1777 14.11L50.6907 8.24951C49.793 6.13401 47.3653 5.12844 45.2347 5.98953L39.3321 8.37497C37.1947 9.23878 34.8053 9.23878 32.6679 8.37497L26.7653 5.98953C24.6347 5.12844 22.207 6.13401 21.3093 8.24951L18.8223 14.11C17.9217 16.2322 16.2322 17.9217 14.11 18.8223L8.24951 21.3093C6.13401 22.207 5.12844 24.6347 5.98953 26.7653L8.37497 32.6679C9.23878 34.8053 9.23878 37.1947 8.37497 39.3321L5.98953 45.2347C5.12844 47.3653 6.13401 49.793 8.24951 50.6907L14.11 53.1777C16.2322 54.0783 17.9217 55.7678 18.8223 57.89L21.3093 63.7505C22.207 65.866 24.6347 66.8716 26.7653 66.0105L32.6679 63.625C34.8053 62.7612 37.1947 62.7612 39.3321 63.625ZM31.5037 41.8534L48.0516 25.3055C49.1483 24.2088 50.9264 24.2088 52.0231 25.3055C53.1198 26.4022 53.1198 28.1803 52.0231 29.277L33.4894 47.8107C32.3927 48.9074 30.6146 48.9074 29.5179 47.8107L20.913 39.2058C19.8163 38.1091 19.8163 36.331 20.913 35.2343C22.0097 34.1376 23.7878 34.1376 24.8845 35.2343L31.5037 41.8534Z" stroke="#E9043F" stroke-width="2"/>
</svg>
