<svg width="70" height="70" viewBox="0 0 70 70" fill="none" xmlns="http://www.w3.org/2000/svg">
<path d="M24.5 13.3438C24.3642 13.4457 24.2539 13.5778 24.178 13.7296C24.102 13.8815 24.0625 14.049 24.0625 14.2188C24.1815 18.331 24.8901 22.4048 26.1669 26.3157C28.9537 34.8622 34.137 40.8625 41.1513 43.6724C41.4126 43.7759 41.7036 43.7759 41.965 43.6724C48.9836 40.8636 54.1669 34.8622 56.9494 26.3157C58.2291 22.4053 58.9407 18.3314 59.0625 14.2188C59.0625 14.0484 59.0226 13.8804 58.9462 13.7282C58.8697 13.576 58.7588 13.4437 58.6222 13.3419C58.4855 13.2401 58.327 13.1717 58.1593 13.142C57.9915 13.1123 57.8192 13.1222 57.6559 13.171C57.5531 13.2005 47.3922 16.1241 42.4528 9.20831C42.3465 9.07398 42.2112 8.96545 42.057 8.89084C41.9029 8.81622 41.7338 8.77747 41.5625 8.77747C41.3912 8.77747 41.2221 8.81622 41.068 8.89084C40.9138 8.96545 40.7785 9.07398 40.6722 9.20831C35.7317 16.123 25.5719 13.2016 25.4691 13.171C25.3053 13.122 25.1323 13.1122 24.964 13.1422C24.7957 13.1722 24.6368 13.2412 24.5 13.3438ZM41.5625 11.5938C46.3203 16.9313 53.6813 16.2192 56.8105 15.6133C56.4736 20.3864 54.3911 36.0347 41.5625 41.4739C28.7536 36.0435 26.658 20.3886 26.3167 15.6144C29.4459 16.2247 36.8058 16.9313 41.5625 11.5938Z" fill="#FF0084"/>
<path d="M41.056 38.8171C41.2122 38.8986 41.3857 38.9412 41.5619 38.9412C41.738 38.9412 41.9116 38.8986 42.0678 38.8171C50.4043 34.4607 53.2065 24.8281 54.134 19.4753C54.1618 19.316 54.1539 19.1526 54.111 18.9968C54.0681 18.8409 53.9911 18.6966 53.8857 18.574C53.6735 18.3279 52.5918 18.1989 52.5918 18.1989C48.8893 18.3182 45.2472 17.2387 42.2078 15.1211C42.0204 14.9842 41.7944 14.9104 41.5624 14.9104C41.3304 14.9104 41.1044 14.9842 40.9171 15.1211C37.8778 17.239 34.2356 18.3185 30.5331 18.1989C30.5331 18.1989 29.4328 18.3268 29.2206 18.574C29.1154 18.6961 29.0386 18.8399 28.9954 18.9951C28.9523 19.1503 28.9441 19.3132 28.9712 19.472C29.8801 24.8193 32.6615 34.4443 41.056 38.8171ZM33.5945 27.3437H40.4687V35.9198C37.4288 33.7513 35.0493 30.7827 33.5945 27.3437ZM42.6562 35.9143V27.3437H49.4965C48.0468 30.7746 45.6801 33.7399 42.6562 35.9143ZM50.3857 25.1562H42.6562V18.002C45.4475 19.511 48.5616 20.324 51.7343 20.3721C51.3963 21.9962 50.9457 23.5947 50.3857 25.1562ZM40.4687 18.0031V25.1562H32.7031C32.1437 23.5955 31.6956 21.9972 31.3621 20.3732C34.5443 20.3286 37.6685 19.5155 40.4687 18.0031Z" fill="#FF0084"/>
<path d="M57.9972 50.9808C57.1015 50.0897 55.9257 49.5352 54.6685 49.4108C53.4112 49.2865 52.1496 49.5999 51.0967 50.2983L41.2902 56.8356C36.3486 56.2275 33.5431 54.7575 32.0403 53.5938H39.9219C40.9372 53.5938 41.9109 53.1904 42.6288 52.4725C43.3467 51.7546 43.75 50.7809 43.75 49.7656C43.75 48.7503 43.3467 47.7766 42.6288 47.0587C41.9109 46.3408 40.9372 45.9375 39.9219 45.9375H25.1563C24.8825 45.9375 24.6187 46.0401 24.4169 46.2252L14.3467 55.4531L11.7108 52.8172C11.5057 52.6121 11.2275 52.497 10.9375 52.497C10.6475 52.497 10.3693 52.6121 10.1642 52.8172L0.320473 62.6609C0.21851 62.7629 0.137706 62.8839 0.082708 63.0172C0.0277099 63.1505 -0.000396942 63.2933 4.23472e-06 63.4375V68.9062C4.23472e-06 69.1963 0.115238 69.4745 0.320356 69.6796C0.525474 69.8848 0.803674 70 1.09375 70H21.875C22.1651 69.9999 22.4432 69.8847 22.6483 69.6795L24.8358 67.492C25.0408 67.2869 25.156 67.0088 25.156 66.7188C25.156 66.4287 25.0408 66.1506 24.8358 65.9455L15.8955 57.0041L25.5817 48.125H39.9219C40.357 48.125 40.7743 48.2978 41.082 48.6055C41.3897 48.9132 41.5625 49.3305 41.5625 49.7656C41.5625 50.2007 41.3897 50.618 41.082 50.9257C40.7743 51.2334 40.357 51.4062 39.9219 51.4062H29.5313C29.3448 51.4062 29.1614 51.4537 28.9985 51.5445C28.8356 51.6352 28.6986 51.7661 28.6005 51.9247C28.5025 52.0832 28.4466 52.2642 28.4381 52.4505C28.4297 52.6368 28.469 52.8221 28.5523 52.9889C28.653 53.1902 31.1259 57.9108 41.4422 59.0559C41.6979 59.0836 41.9552 59.0209 42.1695 58.8788L52.3097 52.1183C52.93 51.707 53.6713 51.518 54.4128 51.5821C55.1544 51.6463 55.8522 51.9598 56.3927 52.4716L42.2898 65.5659L26.3944 63.4473C26.2504 63.4249 26.1035 63.4314 25.9621 63.4666C25.8207 63.5017 25.6878 63.5647 25.5711 63.652C25.4544 63.7392 25.3563 63.8488 25.2826 63.9745C25.2088 64.1001 25.1609 64.2392 25.1417 64.3836C25.1225 64.528 25.1323 64.6748 25.1706 64.8154C25.2088 64.956 25.2748 65.0875 25.3646 65.2022C25.4544 65.3169 25.5662 65.4125 25.6934 65.4834C25.8207 65.5544 25.9608 65.5991 26.1056 65.6152L42.5119 67.8027C42.5597 67.8092 42.608 67.8125 42.6563 67.8125C42.9327 67.8124 43.1988 67.7077 43.4011 67.5194L58.7136 53.3006C58.8212 53.2006 58.9076 53.0799 58.9676 52.9458C59.0275 52.8117 59.0598 52.6668 59.0626 52.5199C59.0654 52.373 59.0385 52.2271 58.9836 52.0908C58.9287 51.9545 58.8469 51.8307 58.7431 51.7267L57.9972 50.9808ZM21.4222 67.8125H2.1875V63.8903L10.9375 55.1403L22.5159 66.7188L21.4222 67.8125Z" fill="#FF0084"/>
<path d="M41.5625 6.5625C41.8526 6.5625 42.1308 6.44727 42.3359 6.24215C42.541 6.03703 42.6562 5.75883 42.6562 5.46875V1.09375C42.6562 0.803669 42.541 0.52547 42.3359 0.320352C42.1308 0.115234 41.8526 0 41.5625 0C41.2724 0 40.9942 0.115234 40.7891 0.320352C40.584 0.52547 40.4688 0.803669 40.4688 1.09375V5.46875C40.4688 5.75883 40.584 6.03703 40.7891 6.24215C40.9942 6.44727 41.2724 6.5625 41.5625 6.5625Z" fill="#FF0084"/>
<path d="M68.9062 25.1562H64.5312C64.2412 25.1562 63.963 25.2715 63.7579 25.4766C63.5527 25.6817 63.4375 25.9599 63.4375 26.25C63.4375 26.5401 63.5527 26.8183 63.7579 27.0234C63.963 27.2285 64.2412 27.3438 64.5312 27.3438H68.9062C69.1963 27.3438 69.4745 27.2285 69.6796 27.0234C69.8848 26.8183 70 26.5401 70 26.25C70 25.9599 69.8848 25.6817 69.6796 25.4766C69.4745 25.2715 69.1963 25.1562 68.9062 25.1562Z" fill="#FF0084"/>
<path d="M14.2188 27.3438H18.5938C18.8838 27.3438 19.162 27.2285 19.3671 27.0234C19.5723 26.8183 19.6875 26.5401 19.6875 26.25C19.6875 25.9599 19.5723 25.6817 19.3671 25.4766C19.162 25.2715 18.8838 25.1562 18.5938 25.1562H14.2188C13.9287 25.1562 13.6505 25.2715 13.4454 25.4766C13.2402 25.6817 13.125 25.9599 13.125 26.25C13.125 26.5401 13.2402 26.8183 13.4454 27.0234C13.6505 27.2285 13.9287 27.3438 14.2188 27.3438Z" fill="#FF0084"/>
<path d="M60.1247 3.9539L57.0304 7.04703C56.926 7.14792 56.8427 7.26861 56.7853 7.40206C56.728 7.5355 56.6978 7.67902 56.6966 7.82425C56.6953 7.96947 56.723 8.1135 56.778 8.24792C56.833 8.38233 56.9142 8.50445 57.0169 8.60715C57.1196 8.70984 57.2417 8.79106 57.3761 8.84605C57.5105 8.90105 57.6546 8.92872 57.7998 8.92746C57.945 8.9262 58.0885 8.89602 58.222 8.8387C58.3554 8.78138 58.4761 8.69806 58.577 8.59359L61.6712 5.50047C61.7757 5.39957 61.859 5.27888 61.9163 5.14544C61.9737 5.012 62.0038 4.86848 62.0051 4.72325C62.0064 4.57802 61.9787 4.434 61.9237 4.29958C61.8687 4.16516 61.7875 4.04304 61.6848 3.94035C61.5821 3.83765 61.46 3.75644 61.3255 3.70144C61.1911 3.64645 61.0471 3.61877 60.9019 3.62004C60.7567 3.6213 60.6131 3.65147 60.4797 3.70879C60.3462 3.76612 60.2256 3.84944 60.1247 3.9539Z" fill="#FF0084"/>
<path d="M22.2273 42.304C22.5174 42.304 22.7955 42.1887 23.0006 41.9836L26.0948 38.8905C26.294 38.6842 26.4043 38.4079 26.4018 38.1211C26.3993 37.8343 26.2843 37.56 26.0815 37.3572C25.8787 37.1544 25.6044 37.0394 25.3176 37.0369C25.0308 37.0344 24.7545 37.1447 24.5482 37.3439L21.454 40.437C21.3011 40.59 21.197 40.7848 21.1548 40.997C21.1126 41.2091 21.1343 41.429 21.217 41.6288C21.2998 41.8287 21.44 41.9995 21.6198 42.1196C21.7996 42.2398 22.011 42.304 22.2273 42.304Z" fill="#FF0084"/>
<path d="M58.577 37.3439C58.3707 37.1447 58.0944 37.0344 57.8076 37.0369C57.5209 37.0394 57.2465 37.1544 57.0437 37.3572C56.841 37.56 56.7259 37.8343 56.7234 38.1211C56.7209 38.4079 56.8312 38.6842 57.0304 38.8905L60.1246 41.9836C60.3309 42.1828 60.6072 42.2931 60.894 42.2906C61.1808 42.2881 61.4551 42.173 61.6579 41.9703C61.8607 41.7675 61.9757 41.4931 61.9782 41.2064C61.9807 40.9196 61.8704 40.6433 61.6712 40.437L58.577 37.3439Z" fill="#FF0084"/>
<path d="M24.5482 8.59357C24.6491 8.69803 24.7698 8.78136 24.9032 8.83868C25.0367 8.896 25.1802 8.92617 25.3254 8.92743C25.4707 8.9287 25.6147 8.90102 25.7491 8.84603C25.8835 8.79103 26.0056 8.70982 26.1083 8.60712C26.211 8.50443 26.2922 8.38231 26.3472 8.24789C26.4022 8.11347 26.4299 7.96945 26.4286 7.82422C26.4274 7.67899 26.3972 7.53547 26.3399 7.40203C26.2826 7.26859 26.1992 7.1479 26.0948 7.047L23.0006 3.95388C22.7943 3.75464 22.518 3.6444 22.2312 3.64689C21.9444 3.64938 21.6701 3.76441 21.4673 3.9672C21.2645 4.16999 21.1495 4.44432 21.147 4.7311C21.1445 5.01787 21.2548 5.29416 21.454 5.50044L24.5482 8.59357Z" fill="#FF0084"/>
</svg>
