<svg width="72" height="72" viewBox="0 0 72 72" fill="none" xmlns="http://www.w3.org/2000/svg">
<path d="M51.8882 65.1219C46.9788 67.8738 41.387 69.3379 35.7291 69.3379C28.9044 69.3379 22.8282 67.5766 17.6546 64.1533L20.0322 61.2142C20.0763 61.2583 20.1203 61.3133 20.1864 61.3573C24.8536 64.2523 30.2253 65.7824 35.7401 65.7824C39.5157 65.7824 43.2032 65.0779 46.6816 63.691C47.0999 63.5258 47.3091 63.0415 47.144 62.6232C46.9788 62.2049 46.4945 61.9958 46.0762 62.1609C42.785 63.4708 39.3176 64.1313 35.7511 64.1313C30.5445 64.1313 25.47 62.6893 21.067 59.9594L22.9823 57.5817C23.4446 57.0093 23.5437 56.2388 23.2355 55.5673C22.9272 54.8959 22.2888 54.4666 21.5513 54.4446L10.9069 54.0703C10.3015 54.0373 9.72914 54.3125 9.34387 54.7858C8.9586 55.2591 8.82651 55.8756 8.98062 56.47L11.5894 66.7951C11.7655 67.5106 12.3269 68.05 13.0424 68.2041C13.1855 68.2371 13.3176 68.2481 13.4607 68.2481C14.0331 68.2481 14.5835 67.9949 14.9577 67.5326L16.6419 65.4522C22.1237 69.1177 28.5411 71 35.7621 71C41.7062 71 47.5733 69.4699 52.7358 66.5749C53.1321 66.3548 53.2752 65.8484 53.055 65.4522C52.8349 65.0559 52.2845 64.9018 51.8882 65.1219ZM13.6368 66.4869C13.5488 66.597 13.4277 66.597 13.3616 66.586C13.2956 66.5749 13.1855 66.5309 13.1525 66.3878L10.5437 56.0627C10.5107 55.9416 10.5657 55.8646 10.5987 55.8205C10.6318 55.7765 10.6978 55.7215 10.8079 55.7215H10.8189L21.4632 56.0957C21.6063 56.0957 21.6724 56.1948 21.7054 56.2608C21.7274 56.3159 21.7604 56.4369 21.6724 56.547L13.6368 66.4869Z" fill="#E24329" stroke="#E24329" stroke-width="0.5"/>
<path d="M20.0765 6.35238C25.283 3.65552 31.1281 2.40065 37.0061 2.69786C43.8198 3.0501 49.797 5.13054 54.7834 8.81808L52.2517 11.636C52.2076 11.581 52.1636 11.526 52.1086 11.4929C47.6065 8.35576 42.3118 6.55052 36.808 6.26432C33.0324 6.06618 29.3228 6.57253 25.7674 7.78337C25.3381 7.92647 25.1069 8.39979 25.25 8.82909C25.3931 9.25839 25.8664 9.48955 26.2957 9.34645C29.6421 8.21267 33.1535 7.72833 36.7199 7.91546C41.9155 8.19065 46.913 9.89683 51.1619 12.8469L49.1255 15.1144C48.6302 15.6648 48.4981 16.4243 48.7622 17.1068C49.0264 17.7893 49.6539 18.2516 50.3914 18.3176L61.0027 19.2423C61.0577 19.2423 61.1128 19.2533 61.1788 19.2533C61.7292 19.2533 62.2355 19.0221 62.6098 18.6148C63.0171 18.1635 63.1822 17.5581 63.0611 16.9527L61.0027 6.50649C60.8596 5.79099 60.3312 5.2186 59.6267 5.02046C58.9223 4.82233 58.1737 5.04248 57.6784 5.59286L55.8952 7.58523C50.6115 3.6335 44.2932 1.42098 37.0942 1.04672C30.9299 0.7275 24.7877 2.04841 19.3279 4.87736C18.9207 5.08651 18.7666 5.58185 18.9757 5.98913C19.1738 6.39641 19.6692 6.56153 20.0765 6.35238ZM58.9002 6.70462C58.9993 6.59455 59.1204 6.60556 59.1754 6.62757C59.2415 6.64959 59.3406 6.69362 59.3736 6.83672L61.443 17.2829C61.465 17.404 61.41 17.4811 61.377 17.5251C61.3439 17.5581 61.2559 17.6242 61.1458 17.6132L50.5345 16.6885C50.3914 16.6775 50.3253 16.5784 50.3033 16.5124C50.2813 16.4574 50.2593 16.3363 50.3584 16.2262L58.9002 6.70462Z" fill="#E24329" stroke="#E24329" stroke-width="0.5"/>
<path d="M9.38779 47.1245C9.80608 46.9594 10.0152 46.4751 9.85011 46.0568C8.5402 42.7655 7.87975 39.2981 7.87975 35.7317C7.87975 30.5251 9.32174 25.4506 12.0516 21.0475L14.4293 22.9628C14.7815 23.249 15.2108 23.3921 15.6401 23.3921C15.9153 23.3921 16.1795 23.3371 16.4437 23.216C17.1151 22.9078 17.5444 22.2694 17.5664 21.5319L17.9407 10.8875C17.9627 10.2711 17.6985 9.7097 17.2252 9.32443C16.7519 8.93917 16.1354 8.80707 15.541 8.96118L5.2049 11.559C4.48941 11.7351 3.95004 12.2965 3.79593 13.012C3.64182 13.7275 3.895 14.465 4.46739 14.9273L6.54783 16.6115C2.87129 22.0822 1 28.5107 1 35.7206C1 41.4006 2.40897 47.0365 5.0618 52.0229C5.21591 52.2981 5.4911 52.4632 5.78831 52.4632C5.9204 52.4632 6.05249 52.4302 6.17357 52.3641C6.58085 52.155 6.72395 51.6486 6.51481 51.2524C3.98306 46.4971 2.64013 41.1254 2.64013 35.7206C2.64013 28.8959 4.40135 22.8197 7.82471 17.6462L10.7637 20.0238C10.7197 20.0678 10.6647 20.1119 10.6206 20.1779C7.72564 24.8451 6.19559 30.2168 6.19559 35.7317C6.19559 39.5073 6.90007 43.1948 8.28703 46.6732C8.41912 46.9924 8.72733 47.1906 9.05756 47.1906C9.17864 47.1906 9.28872 47.1686 9.38779 47.1245ZM5.40304 13.3642C5.41405 13.2982 5.45808 13.1881 5.60118 13.1551L15.9263 10.5463C15.9483 10.5353 15.9703 10.5353 15.9923 10.5353C16.0694 10.5353 16.1354 10.5683 16.1575 10.6013C16.2015 10.6343 16.2675 10.7004 16.2565 10.8215L15.8823 21.4658C15.8823 21.6089 15.7832 21.675 15.7172 21.708C15.6621 21.73 15.541 21.763 15.431 21.675L5.48009 13.6394C5.39203 13.5513 5.39203 13.4303 5.40304 13.3642Z" fill="#E24329" stroke="#E24329" stroke-width="0.5"/>
<path d="M67.5302 20.1559C67.3321 19.7486 66.8367 19.5725 66.4295 19.7706C66.0222 19.9688 65.8461 20.4641 66.0442 20.8714C68.4659 25.8578 69.5886 31.4387 69.2914 36.9975C68.9392 43.8112 66.8588 49.7884 63.1602 54.7748L60.3423 52.243C60.3973 52.199 60.4523 52.166 60.4964 52.111C63.6335 47.6088 65.4388 42.3142 65.725 36.8104C65.9231 33.0348 65.4168 29.3252 64.2059 25.7698C64.0628 25.3405 63.5895 25.1093 63.1602 25.2524C62.7309 25.3955 62.4997 25.8688 62.6428 26.2981C63.7766 29.6445 64.261 33.1559 64.0738 36.7223C63.7986 41.9179 62.0925 46.9154 59.1424 51.1643L56.8749 49.1279C56.3245 48.6326 55.565 48.5005 54.8825 48.7646C54.2 49.0398 53.7377 49.6563 53.6716 50.3938L52.747 61.0051C52.692 61.6105 52.9231 62.1939 53.3744 62.6012C53.7377 62.9204 54.189 63.0965 54.6513 63.0965C54.7724 63.0965 54.9045 63.0855 55.0256 63.0635L65.4718 61.0051C66.1873 60.862 66.7597 60.3336 66.9578 59.6291C67.156 58.9247 66.9358 58.1761 66.3854 57.6808L64.393 55.8976C68.3448 50.6139 70.5573 44.2956 70.9316 37.0966C71.2508 31.2516 70.062 25.3955 67.5302 20.1559ZM65.3727 59.1778C65.3507 59.2439 65.3067 59.3429 65.1636 59.376L54.7064 61.4454C54.5853 61.4674 54.5082 61.4124 54.4642 61.3794C54.4312 61.3463 54.3651 61.2693 54.3761 61.1482L55.3008 50.5369C55.3118 50.3938 55.4108 50.3277 55.4769 50.3057C55.4989 50.2947 55.5429 50.2837 55.587 50.2837C55.642 50.2837 55.7081 50.3057 55.7631 50.3607L65.2847 58.9026C65.3947 59.0017 65.3837 59.1228 65.3727 59.1778Z" fill="#E24329" stroke="#E24329" stroke-width="0.5"/>
<path d="M55.9833 39.1991C56.8529 39.1 57.5133 38.3625 57.5133 37.4819V34.3447C57.5133 33.4641 56.8529 32.7266 55.9833 32.6275L52.692 32.1762C52.2737 30.2499 51.5142 28.4226 50.4355 26.6504L52.4498 24.1076C52.9892 23.4142 52.9342 22.4345 52.3178 21.8071L50.1052 19.5835C49.4888 18.9671 48.4981 18.901 47.8046 19.4514L45.1738 21.4438C43.4897 20.3651 41.6514 19.6055 39.648 19.1212L39.2737 15.929C39.1747 15.0594 38.4372 14.3989 37.5566 14.3989H34.4304C33.5498 14.3989 32.8123 15.0594 32.7132 15.929L32.2619 19.1872C30.3246 19.6055 28.4973 20.3651 26.7141 21.4438L24.1823 19.4514C23.4889 18.9121 22.5092 18.9671 21.8817 19.5835L19.6692 21.8071C19.0528 22.4235 18.9978 23.4142 19.5371 24.1076L21.5405 26.7385C20.4728 28.4226 19.7243 30.2499 19.2399 32.2533L16.0037 32.6385C15.1341 32.7376 14.4736 33.4751 14.4736 34.3557V37.4929C14.4736 38.3735 15.1341 39.111 16.0037 39.2101L19.317 39.6614C19.7463 41.5877 20.5058 43.404 21.5735 45.1652L19.5481 47.7299C19.0088 48.4124 19.0638 49.4031 19.6802 50.0305L21.8928 52.2431C22.5092 52.8595 23.4999 52.9255 24.1933 52.3752L26.7801 50.3387C27.1434 50.0526 27.1984 49.5352 26.9122 49.1829C26.626 48.8197 26.1087 48.7647 25.7564 49.0509L23.0596 51.0873L20.836 48.7647L22.8614 46.1999C23.3127 45.6275 23.3568 44.8239 22.9495 44.1965C21.9918 42.6885 21.3093 41.0483 20.9131 39.3091C20.748 38.5826 20.1536 38.0433 19.4271 37.9552L16.1138 37.4929L16.1798 34.2787L19.416 33.8934C20.1425 33.8053 20.737 33.255 20.9021 32.5285C21.2763 30.7893 21.9588 29.1381 22.9275 27.6191C23.3237 26.9916 23.2907 26.1881 22.8284 25.6157L20.836 22.9739L23.1476 20.7503L25.6794 22.7427C26.2518 23.194 27.0663 23.238 27.6938 22.8308C29.2128 21.8621 30.8639 21.1796 32.6142 20.7944C33.3407 20.6292 33.891 20.0348 33.9791 19.3083L34.4304 16.0501L37.6446 16.1161L38.0189 19.3083C38.1069 20.0348 38.6573 20.6403 39.3838 20.7944C41.123 21.1686 42.7742 21.8621 44.3042 22.8308C44.9317 23.227 45.7352 23.194 46.3186 22.7427L48.9494 20.7503L51.162 23.0729L49.1476 25.6157C48.6963 26.1881 48.6522 27.0026 49.0595 27.6191C50.0282 29.1381 50.7106 30.7782 51.0849 32.5174C51.239 33.2439 51.8444 33.7943 52.5709 33.8714L55.8622 34.3337L55.7962 37.5589L52.5489 37.9442C51.8224 38.0323 51.228 38.5716 51.0629 39.2981C50.6776 41.0263 49.9951 42.6665 49.0375 44.1635C48.6302 44.7909 48.6742 45.5945 49.1255 46.1779L51.162 48.8637L48.8504 51.0873L46.2636 49.0509C45.9113 48.7647 45.383 48.8307 45.1078 49.1829C44.8216 49.5462 44.8876 50.0636 45.2399 50.3387L47.8267 52.3752C48.1459 52.6283 48.5201 52.7494 48.8944 52.7494C49.3457 52.7494 49.786 52.5733 50.1162 52.2431L52.3288 50.0195C52.9452 49.4031 53.0002 48.4124 52.4608 47.7299L50.4244 45.0551C51.4922 43.393 52.2517 41.5767 52.736 39.5843L55.9833 39.1991Z" fill="#E24329" stroke="#E24329" stroke-width="0.5"/>
<path d="M32.0303 58.9687C32.4816 58.9687 32.8559 58.5944 32.8559 58.1431V45.4073C32.8559 45.1652 32.7458 44.923 32.5587 44.7689L28.4969 41.4226C28.64 41.1034 28.706 40.7401 28.706 40.3659C28.706 38.8798 27.4952 37.658 25.9982 37.658C24.5011 37.658 23.2903 38.8688 23.2903 40.3659C23.2903 41.8629 24.5011 43.0737 25.9982 43.0737C26.5155 43.0737 26.9888 42.9196 27.4071 42.6664L31.1937 45.7926V58.1321C31.2047 58.5944 31.568 58.9687 32.0303 58.9687ZM24.9524 40.3769C24.9524 39.7935 25.4258 39.3201 26.0092 39.3201C26.5926 39.3201 27.0659 39.7935 27.0659 40.3769C27.0659 40.9603 26.5926 41.4336 26.0092 41.4336C25.4258 41.4336 24.9524 40.9603 24.9524 40.3769Z" fill="#E24329" stroke="#E24329" stroke-width="0.5"/>
<path d="M26.6695 29.1381C25.1835 29.1381 23.9617 30.3489 23.9617 31.846C23.9617 33.343 25.1725 34.5538 26.6695 34.5538C27.1759 34.5538 27.6382 34.4107 28.0455 34.1576L29.8507 35.7757L30.8965 40.8502C30.9735 41.2355 31.3258 41.5106 31.7 41.5106C31.755 41.5106 31.8101 41.5106 31.8651 41.4886C32.3164 41.4006 32.6026 40.9603 32.5036 40.509L31.4028 35.1703C31.3698 34.9941 31.2817 34.84 31.1496 34.719L29.1352 32.9247C29.2783 32.5945 29.3664 32.2312 29.3664 31.846C29.3664 30.3489 28.1556 29.1381 26.6695 29.1381ZM25.6128 31.835C25.6128 31.2516 26.0861 30.7782 26.6695 30.7782C27.2529 30.7782 27.7263 31.2516 27.7263 31.835C27.7263 32.4184 27.2529 32.8917 26.6695 32.8917C26.0861 32.8917 25.6128 32.4184 25.6128 31.835Z" fill="#E24329" stroke="#E24329" stroke-width="0.5"/>
<path d="M39.1304 45.4073V58.1431C39.1304 58.5944 39.5046 58.9687 39.9559 58.9687C40.4073 58.9687 40.7815 58.5944 40.7815 58.1431V45.7926L44.5681 42.6664C44.9754 42.9196 45.4597 43.0737 45.9771 43.0737C47.4631 43.0737 48.674 41.8629 48.674 40.3659C48.674 38.8798 47.4631 37.658 45.9771 37.658C44.4911 37.658 43.2692 38.8688 43.2692 40.3659C43.2692 40.7401 43.3463 41.0924 43.4784 41.4226L39.4166 44.7689C39.2404 44.923 39.1304 45.1652 39.1304 45.4073ZM45.9771 39.3201C46.5605 39.3201 47.0228 39.7935 47.0228 40.3769C47.0228 40.9603 46.5495 41.4336 45.9771 41.4336C45.3937 41.4336 44.9204 40.9603 44.9204 40.3769C44.9314 39.7935 45.4047 39.3201 45.9771 39.3201Z" fill="#E24329" stroke="#E24329" stroke-width="0.5"/>
<path d="M40.583 35.1703L39.4822 40.509C39.3942 40.9603 39.6804 41.3896 40.1207 41.4886C40.1757 41.4996 40.2307 41.5106 40.2858 41.5106C40.6711 41.5106 41.0123 41.2465 41.0893 40.8502L42.1351 35.7757L43.9403 34.1576C44.3476 34.3997 44.8099 34.5538 45.3163 34.5538C46.8023 34.5538 48.0131 33.343 48.0131 31.846C48.0131 30.3599 46.8023 29.1381 45.3163 29.1381C43.8302 29.1381 42.6084 30.3489 42.6084 31.846C42.6084 32.2312 42.6964 32.5945 42.8395 32.9247L40.8252 34.719C40.7041 34.84 40.616 34.9941 40.583 35.1703ZM45.3163 30.7892C45.8997 30.7892 46.362 31.2626 46.362 31.846C46.362 32.4294 45.8887 32.9027 45.3163 32.9027C44.7329 32.9027 44.2595 32.4294 44.2595 31.846C44.2705 31.2626 44.7439 30.7892 45.3163 30.7892Z" fill="#E24329" stroke="#E24329" stroke-width="0.5"/>
<path d="M35.993 57.3286C36.4443 57.3286 36.8186 56.9543 36.8186 56.503V29.1381C37.9083 28.7859 38.7009 27.7732 38.7009 26.5733C38.7009 25.0873 37.49 23.8765 35.993 23.8765C34.496 23.8765 33.2961 25.0873 33.2961 26.5733C33.2961 27.7732 34.0887 28.7859 35.1674 29.1381V56.503C35.1674 56.9543 35.5417 57.3286 35.993 57.3286ZM35.993 25.5166C36.5764 25.5166 37.0497 25.9899 37.0497 26.5623C37.0497 27.1457 36.5764 27.6191 35.993 27.6191C35.4096 27.6191 34.9473 27.1457 34.9473 26.5623C34.9473 25.9899 35.4096 25.5166 35.993 25.5166Z" fill="#E24329" stroke="#E24329" stroke-width="0.5"/>
</svg>
