<svg width="18" height="13" viewBox="0 0 18 13" fill="none" xmlns="http://www.w3.org/2000/svg">
<path d="M17.8912 5.8377C16.1965 2.53113 12.8415 0.293945 8.99998 0.293945C5.15842 0.293945 1.80248 2.5327 0.108733 5.83801C0.037246 5.97942 0 6.13565 0 6.2941C0 6.45255 0.037246 6.60879 0.108733 6.7502C1.80342 10.0568 5.15842 12.2939 8.99998 12.2939C12.8415 12.2939 16.1975 10.0552 17.8912 6.74988C17.9627 6.60847 18 6.45224 18 6.29379C18 6.13534 17.9627 5.9791 17.8912 5.8377ZM8.99998 10.7939C8.10997 10.7939 7.23994 10.53 6.49992 10.0356C5.7599 9.54109 5.18312 8.83829 4.84253 8.01602C4.50193 7.19375 4.41282 6.28895 4.58645 5.41604C4.76008 4.54312 5.18867 3.7413 5.818 3.11196C6.44734 2.48263 7.24916 2.05405 8.12208 1.88041C8.99499 1.70678 9.89979 1.79589 10.7221 2.13649C11.5443 2.47708 12.2471 3.05386 12.7416 3.79388C13.2361 4.5339 13.5 5.40393 13.5 6.29395C13.5003 6.88497 13.3841 7.47027 13.158 8.01636C12.932 8.56246 12.6005 9.05865 12.1826 9.47657C11.7647 9.89449 11.2685 10.2259 10.7224 10.452C10.1763 10.678 9.59101 10.7942 8.99998 10.7939ZM8.99998 3.29395C8.73221 3.29769 8.46617 3.33753 8.20905 3.41238C8.42099 3.70041 8.5227 4.05485 8.49572 4.41143C8.46875 4.76801 8.31487 5.10312 8.06201 5.35598C7.80915 5.60884 7.47405 5.76271 7.11747 5.78968C6.76088 5.81666 6.40644 5.71495 6.11842 5.50301C5.95441 6.10725 5.98402 6.74772 6.20307 7.33426C6.42213 7.9208 6.8196 8.42387 7.33955 8.77268C7.8595 9.12149 8.47574 9.29846 9.10153 9.2787C9.72733 9.25893 10.3312 9.04341 10.8281 8.66248C11.325 8.28155 11.6899 7.75439 11.8715 7.15519C12.0531 6.556 12.0422 5.91494 11.8404 5.32225C11.6386 4.72956 11.256 4.21508 10.7464 3.85123C10.2369 3.48738 9.62609 3.29247 8.99998 3.29395Z" fill="#666666"/>
</svg>
