<svg width="81" height="60" viewBox="0 0 81 60" fill="none" xmlns="http://www.w3.org/2000/svg">
<path d="M18.2735 23.9279C17.3797 23.9279 16.522 24.0641 15.6682 24.1884C15.9448 23.2585 16.2294 22.3126 16.6863 21.4629C17.1432 20.2285 17.8566 19.1583 18.566 18.0802C19.1592 16.9138 20.2053 16.1242 20.9749 15.1262C21.7805 14.1563 22.8787 13.511 23.7484 12.7054C24.6021 11.8637 25.7204 11.4429 26.6101 10.8497C27.54 10.3166 28.3496 9.72745 29.2153 9.44689L31.3757 8.55711L33.2755 7.76753L31.3316 0L28.9388 0.577153C28.1733 0.769537 27.2394 0.993986 26.1773 1.26252C25.0911 1.46292 23.9328 2.01202 22.6422 2.51303C21.3676 3.08216 19.8927 3.46693 18.522 4.38076C17.1432 5.25451 15.552 5.98397 14.1492 7.15431C12.7905 8.36072 11.1512 9.40681 9.94079 10.9419C8.61815 12.3768 7.31153 13.8838 6.29751 15.5992C5.12316 17.2345 4.32556 19.0301 3.48388 20.8056C2.72235 22.5812 2.10913 24.3968 1.60813 26.1603C0.658226 29.6954 0.233376 33.0541 0.0690471 35.9279C-0.0672254 38.8056 0.0129349 41.1984 0.181272 42.9299C0.241392 43.7475 0.353617 44.5411 0.433777 45.0902L0.533977 45.7635L0.638185 45.7395C1.35106 49.0695 2.99211 52.1296 5.37151 54.5658C7.75091 57.0021 10.7714 58.715 14.0836 59.5063C17.3959 60.2976 20.8644 60.1351 24.0881 59.0374C27.3118 57.9398 30.1588 55.9519 32.2999 53.3037C34.441 50.6556 35.7887 47.4554 36.187 44.0733C36.5852 40.6913 36.0179 37.2656 34.5505 34.1925C33.0832 31.1194 30.7758 28.5245 27.8953 26.708C25.0148 24.8915 21.6789 23.9276 18.2735 23.9279ZM62.3616 23.9279C61.4679 23.9279 60.6101 24.0641 59.7564 24.1884C60.033 23.2585 60.3176 22.3126 60.7745 21.4629C61.2314 20.2285 61.9448 19.1583 62.6542 18.0802C63.2474 16.9138 64.2935 16.1242 65.063 15.1262C65.8687 14.1563 66.9669 13.511 67.8366 12.7054C68.6903 11.8637 69.8085 11.4429 70.6983 10.8497C71.6282 10.3166 72.4378 9.72745 73.3035 9.44689L75.4638 8.55711L77.3636 7.76753L75.4198 0L73.027 0.577153C72.2614 0.769537 71.3276 0.993986 70.2654 1.26252C69.1793 1.46292 68.021 2.01202 66.7304 2.51303C65.4598 3.08617 63.9809 3.46693 62.6101 4.38477C61.2314 5.25852 59.6402 5.98797 58.2374 7.15832C56.8787 8.36473 55.2394 9.41082 54.029 10.9419C52.7063 12.3768 51.3997 13.8838 50.3857 15.5992C49.2113 17.2345 48.4137 19.0301 47.5721 20.8056C46.8105 22.5812 46.1973 24.3968 45.6963 26.1603C44.7464 29.6954 44.3216 33.0541 44.1572 35.9279C44.021 38.8056 44.1011 41.1984 44.2695 42.9299C44.3296 43.7475 44.4418 44.5411 44.522 45.0902L44.6222 45.7635L44.7264 45.7395C45.4392 49.0695 47.0803 52.1296 49.4597 54.5658C51.8391 57.0021 54.8596 58.715 58.1718 59.5063C61.484 60.2976 64.9526 60.1351 68.1763 59.0374C71.4 57.9398 74.247 55.9519 76.3881 53.3037C78.5292 50.6556 79.8769 47.4554 80.2751 44.0733C80.6734 40.6913 80.1061 37.2656 78.6387 34.1925C77.1714 31.1194 74.864 28.5245 71.9835 26.708C69.103 24.8915 65.7671 23.9276 62.3616 23.9279Z" fill="#DD6F77"/>
</svg>
