<svg width="140" height="21" viewBox="0 0 140 21" fill="none" xmlns="http://www.w3.org/2000/svg">
<g clip-path="url(#clip0_20_306)">
<path d="M94.515 19.5117C94.0325 19.7592 93.485 19.3254 93.5825 18.7717L94.62 12.8592L90.2163 8.66415C89.805 8.27165 90.0188 7.55415 90.57 7.47665L96.6925 6.60665L99.4225 1.1979C99.6688 0.7104 100.335 0.7104 100.581 1.1979L103.311 6.60665L109.434 7.47665C109.985 7.55415 110.199 8.27165 109.786 8.66415L105.384 12.8592L106.421 18.7717C106.519 19.3254 105.971 19.7592 105.489 19.5117L100 16.6917L94.5138 19.5117H94.515Z" fill="#FF595A"/>
</g>
<g clip-path="url(#clip1_20_306)">
<path d="M124.515 19.5117C124.033 19.7592 123.485 19.3254 123.583 18.7717L124.62 12.8592L120.216 8.66415C119.805 8.27165 120.019 7.55415 120.57 7.47665L126.693 6.60665L129.423 1.1979C129.669 0.7104 130.335 0.7104 130.581 1.1979L133.311 6.60665L139.434 7.47665C139.985 7.55415 140.199 8.27165 139.786 8.66415L135.384 12.8592L136.421 18.7717C136.519 19.3254 135.971 19.7592 135.489 19.5117L130 16.6917L124.514 19.5117H124.515Z" fill="#FF595A"/>
</g>
<g clip-path="url(#clip2_20_306)">
<path d="M64.515 19.5117C64.0325 19.7592 63.485 19.3254 63.5825 18.7717L64.62 12.8592L60.2163 8.66415C59.805 8.27165 60.0188 7.55415 60.57 7.47665L66.6925 6.60665L69.4225 1.1979C69.6688 0.7104 70.335 0.7104 70.5813 1.1979L73.3113 6.60665L79.4338 7.47665C79.985 7.55415 80.1988 8.27165 79.7863 8.66415L75.3838 12.8592L76.4213 18.7717C76.5188 19.3254 75.9713 19.7592 75.4888 19.5117L70 16.6917L64.5138 19.5117H64.515Z" fill="#FF595A"/>
</g>
<g clip-path="url(#clip3_20_306)">
<path d="M34.515 19.5117C34.0325 19.7592 33.485 19.3254 33.5825 18.7717L34.62 12.8592L30.2163 8.66415C29.805 8.27165 30.0188 7.55415 30.57 7.47665L36.6925 6.60665L39.4225 1.1979C39.6688 0.7104 40.335 0.7104 40.5813 1.1979L43.3113 6.60665L49.4338 7.47665C49.985 7.55415 50.1988 8.27165 49.7863 8.66415L45.3838 12.8592L46.4213 18.7717C46.5188 19.3254 45.9713 19.7592 45.4888 19.5117L40 16.6917L34.5138 19.5117H34.515Z" fill="#FF595A"/>
</g>
<g clip-path="url(#clip4_20_306)">
<path d="M4.51503 19.5117C4.03253 19.7592 3.48503 19.3254 3.58253 18.7717L4.62003 12.8592L0.216276 8.66415C-0.194974 8.27165 0.0187758 7.55415 0.570026 7.47665L6.69253 6.60665L9.42253 1.1979C9.66878 0.7104 10.335 0.7104 10.5813 1.1979L13.3113 6.60665L19.4338 7.47665C19.985 7.55415 20.1988 8.27165 19.7863 8.66415L15.3838 12.8592L16.4213 18.7717C16.5188 19.3254 15.9713 19.7592 15.4888 19.5117L10 16.6917L4.51378 19.5117H4.51503Z" fill="#FF595A"/>
</g>
<defs>
<clipPath id="clip0_20_306">
<rect width="20" height="20" fill="white" transform="translate(90 0.208008)"/>
</clipPath>
<clipPath id="clip1_20_306">
<rect width="20" height="20" fill="white" transform="translate(120 0.208008)"/>
</clipPath>
<clipPath id="clip2_20_306">
<rect width="20" height="20" fill="white" transform="translate(60 0.208008)"/>
</clipPath>
<clipPath id="clip3_20_306">
<rect width="20" height="20" fill="white" transform="translate(30 0.208008)"/>
</clipPath>
<clipPath id="clip4_20_306">
<rect width="20" height="20" fill="white" transform="translate(0 0.208008)"/>
</clipPath>
</defs>
</svg>
